<svg width="449" height="180" viewBox="0 0 449 180" fill="none" xmlns="http://www.w3.org/2000/svg">
<path fill-rule="evenodd" clip-rule="evenodd" d="M53.2518 177V151.319L71.2614 147.856V136.825H2.96592L0.984863 116.59L72.2551 2.91093H110.856V108.428H129.905V136.825H110.856V147.859L128.75 151.322V177H53.2518ZM107.856 150.334V133.825H126.905V111.428H107.856V5.91093H73.9151L4.07032 117.316L5.68656 133.825H74.2614V150.334L56.2518 153.797V174H125.75V153.797L107.856 150.334ZM73.5687 50.5885L74.2614 50.8194V111.428H35.4716L70.798 55.4372L73.5687 50.5885ZM40.9116 108.428H71.2614V60.325L40.9116 108.428ZM182.279 161.221L182.272 161.213C171.372 148.921 166.163 131.199 166.163 108.542V71.4842C166.163 48.9062 171.333 31.228 182.149 18.937L182.15 18.936C193.032 6.58099 207.752 0.486572 225.962 0.486572C244.096 0.486572 258.773 6.58172 269.652 18.9289C280.627 31.2197 285.877 48.9017 285.877 71.4842V108.542C285.877 131.198 280.667 148.92 269.768 161.212C258.959 173.413 244.316 179.424 226.193 179.424C207.924 179.424 193.168 173.42 182.279 161.221ZM267.407 20.9189C257.171 9.29735 243.356 3.48657 225.962 3.48657C208.491 3.48657 194.638 9.29735 184.401 20.9189C174.242 32.4635 169.163 49.3186 169.163 71.4842V108.542C169.163 130.785 174.281 147.678 184.517 159.223C194.753 170.691 208.645 176.424 226.193 176.424C243.587 176.424 257.363 170.691 267.522 159.223C277.759 147.678 282.877 130.785 282.877 108.542V71.4842C282.877 49.3186 277.72 32.4635 267.407 20.9189ZM226.193 147.565C232.751 147.565 237.512 144.975 240.865 139.716C244.317 134.301 246.282 125.166 246.282 111.775V68.0208C246.282 54.7978 244.282 45.7455 240.763 40.3325C237.333 35.0543 232.522 32.4619 225.962 32.4619C219.313 32.4619 214.521 35.0617 211.175 40.3102C207.72 45.7292 205.757 54.7918 205.757 68.0208V111.775C205.757 125.157 207.72 134.289 211.168 139.706C214.585 144.956 219.458 147.565 226.193 147.565ZM208.645 141.329C204.72 135.172 202.757 125.32 202.757 111.775V68.0208C202.757 54.6291 204.72 44.8547 208.645 38.6976C212.57 32.5404 218.342 29.4619 225.962 29.4619C233.504 29.4619 239.277 32.5404 243.279 38.6976C247.281 44.8547 249.282 54.6291 249.282 68.0208V111.775C249.282 125.32 247.319 135.172 243.394 141.329C239.469 147.486 233.735 150.565 226.193 150.565C218.496 150.565 212.647 147.486 208.645 141.329ZM371.661 177V151.319L389.67 147.856V136.825H321.375L319.394 116.59L390.664 2.91093H429.265V108.428H448.314V136.825H429.265V147.859L447.159 151.322V177H371.661ZM426.265 150.334V133.825H445.314V111.428H426.265V5.91093H392.324L322.479 117.316L324.095 133.825H392.67V150.334L374.661 153.797V174H444.159V153.797L426.265 150.334ZM391.978 50.5885L392.67 50.8194V111.428H353.881L389.207 55.4372L391.978 50.5885ZM359.321 108.428H389.67V60.325L359.321 108.428Z" fill="white"/>
</svg>
