<svg width="180" height="101" viewBox="0 0 180 101" fill="none" xmlns="http://www.w3.org/2000/svg">
<path d="M83.8566 37.6882C80.9753 36.2511 78.3972 34.4921 76.6424 31.7679C75.2126 29.5371 74.6926 27.1132 74.9526 24.4963C75.1909 22.1796 75.9491 20.0346 76.989 17.9754C77.9423 16.1092 79.0905 14.3932 80.347 12.72C80.412 12.6342 80.4986 12.5484 80.6503 12.3983C80.6936 13.0203 80.7153 13.5352 80.7803 14.05C80.9103 15.0367 81.0402 16.0234 81.2352 16.9887C81.4085 17.8252 81.7768 18.5974 82.2968 19.2838C82.4268 19.4554 82.5784 19.5842 82.7734 19.7129C82.6651 19.005 82.5567 18.2971 82.4701 17.5678C82.0151 13.621 82.8817 9.99585 85.0265 6.6496C86.7596 3.96831 89.0777 1.84473 91.7207 0.0429007C91.7424 0.0214503 91.7857 0.0214503 91.8724 0C91.8724 0.171603 91.8724 0.321755 91.8507 0.450457C91.1574 4.11846 91.959 7.52906 93.7138 10.7681C94.5371 12.291 95.512 13.7068 96.5085 15.1225C97.5267 16.5811 98.5449 18.0397 99.5198 19.5413C100.3 20.7425 100.885 22.0295 101.253 23.4238C101.838 25.5688 101.556 27.6495 100.625 29.6444C99.7148 31.5749 98.3933 33.1837 96.8985 34.6852C95.9886 35.6075 94.992 36.4441 94.0388 37.3236C93.9955 37.3021 93.9521 37.2807 93.9088 37.2592C93.9738 37.1091 94.0171 36.9589 94.0821 36.8302C94.667 35.5432 95.1437 34.2347 95.3603 32.8405C95.5986 31.2746 95.4036 29.7945 94.667 28.4002C94.2771 27.6495 93.7788 26.9416 93.3239 26.2123C92.6089 25.0754 91.829 23.96 91.1791 22.7802C90.3342 21.2358 89.9442 19.5413 89.8359 17.7823C89.8359 17.6107 89.7926 17.4391 89.7709 17.1817C85.9797 20.7639 85.1998 24.9253 86.8679 29.7731C86.5863 29.6444 86.413 29.58 86.2397 29.4942C84.8965 28.7649 83.8999 27.6924 83.0983 26.4268C82.9034 26.1051 82.7301 25.7833 82.4701 25.3757C82.3184 25.8047 82.2101 26.148 82.1018 26.4912C81.4952 28.8078 81.6468 31.103 82.2534 33.3767C82.6001 34.6852 83.12 35.9293 83.7049 37.152C83.7699 37.3236 83.9216 37.4523 83.8566 37.6882Z" fill="white"/>
<path d="M176.969 85.3293H175.063C174.023 85.3293 172.983 85.3078 171.943 85.3293C171.488 85.3507 171.25 85.1791 171.033 84.8144C167.589 79.1301 164.144 73.4458 160.699 67.7614C160.505 67.4182 160.288 67.0965 159.963 66.7962V81.4253C160.938 81.6183 161.891 81.8114 162.888 82.0045V85.2863H151.341C151.319 84.2138 151.319 83.1413 151.341 82.0259C152.315 81.8328 153.269 81.6398 154.2 81.4467C154.33 80.9319 154.395 62.978 154.265 61.5408C153.334 61.3478 152.359 61.1547 151.362 60.9617V57.6369C151.579 57.6154 151.752 57.594 151.947 57.594C154.417 57.594 156.865 57.6154 159.335 57.5725C159.79 57.5725 160.028 57.7441 160.245 58.1088C163.733 63.8789 167.22 69.6276 170.708 75.3763C170.86 75.6337 171.033 75.8911 171.315 76.1056V61.4979C170.34 61.3049 169.365 61.1118 168.39 60.9188V57.6154H179.937C180.046 58.1302 179.981 58.6879 179.981 59.2242C180.002 59.7605 179.981 60.2967 179.981 60.8973C178.984 61.0904 177.988 61.3049 176.969 61.4979V85.3293Z" fill="white"/>
<path d="M156.887 49.0568H23.5216C23.5216 48.6278 23.5 48.1988 23.5 47.7483C23.5 47.3193 23.5 46.8903 23.5 46.3969H79.1337C79.1554 45.6247 79.697 45.3888 80.2602 45.1957C81.3218 44.8096 82.1017 44.0803 82.8166 43.2866C83.1633 42.9005 83.5315 42.8362 84.0298 42.9434C84.5714 43.0721 85.1347 43.1365 85.6763 43.2652C86.0446 43.351 86.3262 43.2866 86.6512 43.0721C87.6911 42.3643 88.7743 41.6564 89.8358 40.97C90.0092 40.8627 90.2041 40.734 90.4208 40.5839C91.5473 41.828 92.6739 43.0721 93.8221 44.3377C94.4287 44.1017 95.0136 43.8658 95.6635 43.6084C95.9885 44.1017 96.3351 44.5736 96.6167 45.067C96.8984 45.5604 97.2883 45.9036 97.7433 46.2039C97.8949 46.3111 98.0899 46.354 98.2849 46.3755C98.4799 46.3969 98.6748 46.3755 98.8698 46.3755C117.913 46.3755 136.956 46.3755 155.977 46.3755H156.887V49.0568Z" fill="white"/>
<path d="M85.633 82.0045C85.6547 82.1332 85.6763 82.2405 85.6763 82.3263C85.6763 83.2915 85.6763 84.2568 85.6763 85.1792C85.6113 85.2435 85.568 85.2864 85.5463 85.2864C84.0948 85.2864 82.6433 85.4366 81.2135 85.1792C79.8487 84.9432 78.8954 84.1924 78.3538 82.9269C77.9639 82.0689 77.8122 81.1679 77.8122 80.2456C77.8122 79.409 77.8122 78.5724 77.7472 77.7573C77.5739 75.7196 76.2307 74.3682 74.1943 74.1537C73.891 74.1322 73.5877 74.1322 73.2844 74.1322C71.8979 74.1322 70.533 74.1322 69.1465 74.1322C69.0165 74.6256 68.9732 80.5673 69.1032 81.4468C70.0564 81.6398 71.0096 81.8329 72.0062 82.0259V85.3078H60.5458C60.4158 84.8788 60.3725 82.884 60.5025 82.0259C61.4341 81.8329 62.3656 81.6613 63.2972 81.4682C63.4488 80.9534 63.5138 63.2355 63.3622 61.5623C62.4306 61.3693 61.4774 61.1762 60.4592 60.9832V57.6584C60.6541 57.6369 60.8491 57.6155 61.0224 57.6155C65.182 57.6155 69.3632 57.594 73.5227 57.6155C75.3642 57.6369 77.184 57.9372 78.8521 58.7523C82.535 60.5327 83.6616 63.9433 82.99 67.2896C82.6867 68.8555 81.7118 70.0352 80.4119 70.9361C79.9353 71.2579 79.4154 71.5367 78.8521 71.8799C79.0687 71.9657 79.2204 72.0301 79.3937 72.0944C81.7118 72.9525 82.9466 74.647 83.2716 77.028C83.3366 77.5857 83.3583 78.1434 83.3799 78.6797C83.4016 79.216 83.3583 79.7522 83.4016 80.2885C83.4882 81.2537 83.9215 81.7042 84.8748 81.8758C85.1347 81.8972 85.373 81.9616 85.633 82.0045ZM69.0599 69.7778C69.2115 69.7993 69.3198 69.8207 69.4065 69.8207C70.6414 69.8207 71.8762 69.8636 73.0894 69.7993C73.7827 69.7778 74.4759 69.692 75.1259 69.499C76.4907 69.1128 77.3139 68.169 77.5306 66.7748C77.6606 66.024 77.6172 65.2732 77.3789 64.5439C77.0323 63.4714 76.3391 62.6778 75.2558 62.2702C74.7792 62.0986 74.2593 61.9484 73.761 61.927C72.2445 61.8841 70.7497 61.8841 69.2332 61.8841C69.1682 61.8841 69.1249 61.927 69.0382 61.9484V69.7778H69.0599Z" fill="white"/>
<path d="M93.6273 61.5195C92.6524 61.3265 91.6992 61.1334 90.7243 60.9404V57.6585C90.8976 57.637 91.0709 57.5941 91.2226 57.5941C95.4254 57.5941 99.65 57.5298 103.853 57.6156C109.94 57.7443 113.515 61.7555 114.598 65.4878C114.902 66.5389 115.075 67.6114 115.097 68.7054C115.097 70.5716 115.118 72.4377 115.097 74.2825C115.01 79.5378 111.609 83.785 106.518 84.9647C105.629 85.1792 104.676 85.2865 103.766 85.3079C99.6066 85.3508 95.4254 85.3294 91.2659 85.3294C91.1143 85.3294 90.9626 85.3079 90.7243 85.3079C90.7243 84.214 90.7243 83.1414 90.7243 82.026C91.7209 81.833 92.6524 81.6399 93.649 81.4469V61.5195H93.6273ZM99.3683 61.9485C99.2167 62.6135 99.26 80.5889 99.39 81.0393C100.863 81.0393 102.336 81.1037 103.788 81.0179C105.499 80.9106 106.929 80.1384 107.969 78.7441C109.009 77.3713 109.421 75.784 109.442 74.1109C109.464 72.3305 109.464 70.5501 109.442 68.7912C109.442 67.8688 109.269 66.9679 108.966 66.0884C108.077 63.5144 106.149 62.0558 103.42 61.9056C102.141 61.8413 100.863 61.8842 99.585 61.8842C99.5417 61.8842 99.455 61.9271 99.3683 61.9485Z" fill="white"/>
<path d="M54.9999 71.3224C54.9782 74.1324 54.5883 76.7279 53.2884 79.0874C51.5769 82.2621 49.1072 84.5358 45.4893 85.3509C41.893 86.166 38.4267 85.8657 35.3071 83.7421C32.7507 82.0047 31.1476 79.5808 30.2377 76.6635C29.5228 74.3683 29.4361 72.0303 29.6094 69.6707C29.826 66.5604 30.8659 63.7504 32.9024 61.3265C35.1988 58.6238 38.1451 57.2939 41.6764 57.1866C43.6045 57.1223 45.4676 57.3582 47.2441 58.1305C50.5587 59.5676 52.6818 62.1202 53.96 65.4021C54.7616 67.3541 54.9782 69.3919 54.9999 71.3224ZM49.3889 70.9578C49.3455 70.4429 49.3022 69.4562 49.1505 68.491C48.9122 66.9251 48.414 65.4665 47.5041 64.1365C46.6158 62.8281 45.4026 61.9701 43.8428 61.6912C43.0412 61.5411 42.1963 61.4982 41.3948 61.5625C39.4016 61.7127 37.8201 62.635 36.8019 64.394C36.412 65.0804 36.0653 65.8097 35.827 66.5604C35.1121 68.7269 35.0688 70.9792 35.2421 73.2315C35.3504 74.7974 35.6971 76.3203 36.3903 77.7361C37.4519 79.9454 39.185 81.2325 41.698 81.3826C44.4277 81.5328 46.6158 80.589 47.959 78.1222C48.2406 77.6074 48.479 77.0496 48.6739 76.4705C49.2589 74.8617 49.3672 73.1457 49.3889 70.9578Z" fill="white"/>
<path d="M23.175 66.5602H19.1238C19.0805 66.4315 19.0155 66.3028 18.9938 66.1741C18.8205 65.3376 18.6039 64.501 18.4739 63.6644C18.3872 63.0209 18.0623 62.6348 17.499 62.356C16.0258 61.6267 14.466 61.3907 12.8412 61.4765C9.54823 61.6696 7.55512 63.5143 6.40691 66.4315C5.99529 67.4611 5.77865 68.5122 5.69199 69.6062C5.54035 71.7727 5.49702 73.9177 6.14694 76.0413C6.32026 76.5775 6.51524 77.0923 6.77521 77.5857C8.0534 80.0954 10.1548 81.3395 12.9495 81.4468C14.271 81.4897 15.5926 81.4253 16.8491 80.9534C17.174 80.8247 17.4773 80.6745 17.759 80.5458V75.8268C16.4591 75.7195 15.1593 75.6123 13.8377 75.505V71.6225H23.4133V72.3304C23.4133 75.4407 23.3917 78.5295 23.435 81.6398C23.435 82.1546 23.2617 82.4764 22.8717 82.7552C21.1386 84.0422 19.2105 84.9432 17.0874 85.3507C14.986 85.7583 12.8845 85.887 10.7614 85.5867C5.90864 84.9003 2.70233 82.1546 0.925863 77.693C0.362593 76.2772 0.102622 74.7757 0.0376293 73.2527C-0.0490276 71.0219 -0.0273635 68.8125 0.557571 66.6246C1.46747 63.3427 3.2656 60.6828 6.21194 58.8596C7.83675 57.8514 9.65655 57.358 11.5413 57.2293C14.856 57.0363 17.9973 57.5725 20.8786 59.2886C21.5935 59.7176 22.2435 60.2538 22.9151 60.7686C23.11 60.9188 23.2184 61.0904 23.2184 61.3693C23.1967 63.0424 23.2184 64.7155 23.1967 66.3672C23.24 66.4101 23.1967 66.4744 23.175 66.5602Z" fill="white"/>
<path d="M127.207 81.64C127.878 81.7687 128.463 81.876 129.113 82.0047C129.157 83.0772 129.135 84.1497 129.113 85.2866H119.689C119.559 84.8576 119.516 82.927 119.646 82.0047C120.079 81.9403 120.512 81.8545 120.946 81.8116C121.422 81.7901 121.639 81.5542 121.791 81.1252C123.935 74.9904 126.124 68.8556 128.29 62.7208C128.853 61.1549 129.395 59.5676 129.958 58.0017C130.001 57.873 130.066 57.7658 130.11 57.6156H135.872C138.689 65.6166 141.483 73.6176 144.321 81.6829C144.95 81.7902 145.578 81.8974 146.206 81.9832C146.358 82.4122 146.38 84.214 146.271 85.2651H136.826V82.0047C137.411 81.8974 138.017 81.7687 138.71 81.64C138.299 80.3744 137.909 79.1303 137.497 77.8862H128.398C128.03 79.1089 127.618 80.3315 127.207 81.64ZM136.154 73.7248C135.786 72.588 135.439 71.494 135.092 70.4215C134.746 69.349 134.399 68.255 134.053 67.1825C133.706 66.1314 133.424 65.0589 133.013 64.0293C132.969 64.0293 132.926 64.0507 132.883 64.0507C131.843 67.2468 130.825 70.4644 129.763 73.7034H136.154V73.7248Z" fill="white"/>
<path d="M58.7477 95.3468C58.4444 95.4326 58.1411 95.5184 57.8378 95.6042V99.594C58.1628 99.6798 58.4444 99.7442 58.7477 99.83V100.731C58.2927 100.86 48.9988 100.924 47.9156 100.774V99.8085C48.1755 99.7442 48.4572 99.6584 48.7821 99.5726V95.5613C48.5222 95.497 48.2622 95.4326 47.9372 95.3468V94.3387H51.5118V95.3468C51.2302 95.4112 50.9486 95.497 50.6669 95.5828V99.4653H52.4001V94.3387H54.2199V99.4439H56.018C56.0613 98.1783 56.018 96.9127 56.0397 95.5828C55.7147 95.497 55.4331 95.4112 55.0864 95.3254V94.3387H58.7477V95.3468Z" fill="white"/>
<path d="M78.4189 100.838H67.6301V99.8299C67.8684 99.7655 68.1501 99.6797 68.475 99.5939V95.5827C68.2151 95.5183 67.9334 95.4325 67.6085 95.3467V94.3386H71.2047V95.3467C70.9231 95.4325 70.6415 95.4969 70.3382 95.5827V99.4652H72.093V94.3386H73.9128V99.4867H75.6892V95.5827C75.4076 95.5183 75.126 95.4325 74.801 95.3467V94.4029C75.2343 94.2742 77.444 94.2313 78.4189 94.36V95.3467C78.1156 95.4325 77.834 95.4969 77.5307 95.5827V99.5939C77.834 99.6797 78.1373 99.7655 78.4189 99.8299V100.838Z" fill="white"/>
<path d="M38.405 97.5346C37.69 97.7062 24.1066 97.6848 23.5433 97.5346V94.982C23.8249 94.9606 24.0632 94.9391 24.2799 94.9391C28.6994 94.9391 33.1189 94.9391 37.5384 94.9391C37.5601 94.9391 37.5817 94.9391 37.6034 94.9391C38.3833 94.9391 38.3833 94.9391 38.405 95.7328C38.4266 96.3334 38.405 96.934 38.405 97.5346Z" fill="white"/>
<path d="M142.09 94.982C142.35 94.9606 142.567 94.9391 142.762 94.9391C147.203 94.9391 151.666 94.9391 156.107 94.9391C156.237 94.9391 156.367 94.9391 156.497 94.9391C156.692 94.9391 156.843 95.0464 156.843 95.2394C156.843 96.0117 156.843 96.7624 156.843 97.5132C156.302 97.6633 143.022 97.7062 142.068 97.5775C142.003 96.741 142.003 95.883 142.09 94.982Z" fill="white"/>
<path d="M116.851 95.3468C116.548 95.4326 116.266 95.5184 115.963 95.6042V99.594C116.245 99.6798 116.526 99.7656 116.851 99.8514V100.838H113.407V99.8514C113.623 99.7656 113.862 99.7013 114.1 99.6155V98.3928H111.998V99.6155C112.193 99.6798 112.41 99.7656 112.67 99.8514V100.774C112.215 100.902 110.114 100.924 109.247 100.817V99.8514C109.507 99.7871 109.767 99.7227 110.027 99.6369C110.157 99.2079 110.2 96.6982 110.092 95.5828C109.854 95.5184 109.572 95.4541 109.247 95.3683V94.3387H112.67V95.3254C112.432 95.4112 112.215 95.497 111.977 95.5828V96.9127H114.1V95.5828C113.905 95.5184 113.688 95.4326 113.428 95.3468V94.3387H116.851V95.3468Z" fill="white"/>
<path d="M132.796 100.817H129.265V99.8301C129.525 99.7443 129.785 99.6799 130.067 99.5941V98.6074C129.85 98.5859 129.677 98.5859 129.482 98.5645C129.157 98.5216 128.962 98.6503 128.81 98.9291C128.463 99.5727 128.095 100.195 127.748 100.817H125.799V99.8086C126.795 99.8301 126.904 98.9506 127.315 98.3071C127.164 98.1998 127.012 98.0926 126.86 97.9639C125.885 97.2131 125.82 95.8403 126.73 94.9823C127.207 94.5318 127.813 94.3173 128.442 94.2959C129.872 94.253 131.28 94.2744 132.753 94.2744V95.3255C132.471 95.3898 132.211 95.4756 131.908 95.54V99.5512C132.19 99.637 132.471 99.7228 132.775 99.8086V100.817H132.796ZM130.067 95.6901C129.655 95.6901 129.308 95.6901 128.962 95.6901C128.875 95.6901 128.788 95.6901 128.702 95.7116C128.268 95.7759 127.922 96.1191 127.9 96.5267C127.878 96.9128 128.182 97.3204 128.637 97.3633C129.092 97.4062 129.568 97.3847 130.045 97.3847V95.6901H130.067Z" fill="white"/>
<path d="M79.8704 99.5294C80.7153 99.3363 80.8886 99.1862 80.932 98.3282C80.9753 97.4272 80.932 96.5478 80.932 95.5825C80.672 95.5182 80.412 95.4538 80.0871 95.368V94.3598H87.0846V95.368C86.7813 95.4538 86.4997 95.5182 86.218 95.5825V99.5937C86.478 99.6581 86.7596 99.7439 87.0846 99.8297V100.816H83.4667V99.8297C83.7483 99.7653 84.0083 99.6795 84.3766 99.5937C84.3982 98.3282 84.3982 97.0411 84.3766 95.7327H82.7734C82.7734 96.2689 82.7951 96.7837 82.7734 97.2985C82.7301 97.9206 82.6651 98.5427 82.5351 99.1433C82.2751 100.366 81.2353 101.052 79.8704 100.838V99.5294Z" fill="white"/>
<path d="M103.484 94.3386V95.3253C103.268 95.4111 103.051 95.4969 102.791 95.5827C102.791 95.9474 102.77 96.312 102.791 96.6767C102.835 97.1057 103.094 97.3845 103.528 97.4489C103.983 97.5132 104.416 97.5347 104.893 97.3631V95.5612C104.654 95.4754 104.438 95.4111 104.199 95.3253V94.4029C104.654 94.2742 106.669 94.2313 107.644 94.36V95.3682C107.362 95.4325 107.102 95.4969 106.799 95.5827V99.6154C107.081 99.6797 107.341 99.7655 107.644 99.8299V100.859C106.474 100.859 105.261 100.859 104.026 100.859V99.8299C104.308 99.7441 104.589 99.6797 104.893 99.5939V98.9075C104.264 98.8646 103.658 98.8646 103.029 98.8002C102.51 98.7359 102.033 98.5428 101.643 98.1782C101.145 97.7277 100.993 97.1486 100.971 96.5051C100.971 96.2047 100.971 95.9045 100.971 95.6041C100.646 95.5183 100.386 95.454 100.061 95.3682V94.3386H103.484Z" fill="white"/>
<path d="M89.4891 95.5827C89.2291 95.5183 88.9692 95.454 88.6659 95.3682V94.3171H92.2621V95.3682C91.9588 95.454 91.6772 95.5183 91.3739 95.6041V96.3978C91.6339 96.4192 91.8722 96.4193 92.1321 96.4407C92.7171 96.4836 93.302 96.4836 93.8653 96.6123C94.9052 96.8697 95.4684 97.6205 95.4901 98.5857C95.4901 99.5939 94.9268 100.366 93.9086 100.688C93.6053 100.774 93.2804 100.838 92.9554 100.859C91.6122 100.881 90.269 100.859 88.9475 100.859C88.8608 100.859 88.7742 100.838 88.6659 100.817V99.8298C88.9475 99.7655 89.2075 99.6797 89.4674 99.6153C89.5974 99.1649 89.6191 96.3764 89.4891 95.5827ZM91.3739 99.551C92.0022 99.5081 92.5221 99.5295 93.0637 99.4437C93.497 99.3794 93.692 99.0362 93.6703 98.5857C93.6486 98.1567 93.432 97.835 92.9987 97.7706C92.4788 97.6848 91.9372 97.6634 91.3739 97.7706V99.551Z" fill="white"/>
<path d="M61.8022 96.3763H60.524C60.5024 96.1618 60.4807 95.9687 60.4807 95.7971C60.4807 94.8533 60.4807 94.8533 61.3689 94.5101C62.1922 94.1884 63.0371 94.1025 63.9036 94.2956C65.1168 94.5745 65.7668 95.3467 65.7668 96.5693C65.7668 97.599 65.7668 98.6286 65.7668 99.6582C65.9617 99.744 66.1134 99.8083 66.2867 99.8727V100.816H64.2719C64.1853 100.666 64.0986 100.495 64.012 100.28C63.362 100.838 62.6688 101.052 61.8455 100.967C60.589 100.817 59.8308 99.7011 60.1991 98.4999C60.3507 97.9636 60.719 97.599 61.2389 97.4274C61.7372 97.2557 62.2788 97.1914 62.8204 97.127C63.1887 97.0841 63.557 97.127 63.9036 97.127C64.1203 96.1618 63.882 95.647 63.2104 95.5183C62.4305 95.3467 61.9972 95.6255 61.8022 96.3763ZM63.9036 98.1352C63.7087 98.1138 63.5787 98.0923 63.427 98.1138C63.1237 98.1352 62.8204 98.1138 62.5388 98.1996C62.1055 98.3068 61.8455 98.7358 61.9105 99.1219C61.9755 99.508 62.3005 99.7225 62.7988 99.7011C63.687 99.6582 64.0553 99.1863 63.9036 98.1352Z" fill="white"/>
<path d="M118.671 96.3764C118.671 96.1833 118.649 96.076 118.649 95.9688C118.628 94.8534 118.671 94.8105 119.754 94.4244C120.534 94.167 121.314 94.1026 122.116 94.2957C123.285 94.5745 123.914 95.3253 123.914 96.5265C123.914 97.406 123.914 98.2854 123.914 99.1649C123.914 99.6797 123.935 99.6797 124.477 99.8728V100.752C124.044 100.902 123.307 100.924 122.419 100.817C122.332 100.666 122.267 100.495 122.137 100.28C121.531 100.859 120.837 101.053 120.036 100.988C119.083 100.902 118.389 100.28 118.281 99.4008C118.151 98.3927 118.563 97.6848 119.559 97.3845C120.014 97.2344 120.491 97.1915 120.946 97.1486C121.314 97.1057 121.661 97.1486 122.029 97.1486C122.246 96.2262 122.029 95.6899 121.379 95.5612C121.076 95.4969 120.751 95.5612 120.426 95.6041C119.992 95.6685 120.079 96.0975 119.949 96.3978H118.671V96.3764ZM122.072 98.1138C121.899 98.0924 121.747 98.0709 121.596 98.0924C121.292 98.1138 120.989 98.0924 120.707 98.1782C120.274 98.2854 120.036 98.7144 120.101 99.122C120.166 99.5081 120.491 99.7226 120.989 99.7012C121.877 99.6583 122.246 99.1434 122.072 98.1138Z" fill="white"/>
<path d="M98.2416 94.3598V99.5937C98.5232 99.6795 98.7832 99.7439 99.0648 99.8297V100.859C97.9382 100.859 96.8117 100.881 95.6418 100.859V99.8511C95.8801 99.7868 96.1185 99.701 96.3568 99.6366C96.4867 99.1862 96.5301 96.4191 96.4001 95.604C96.1401 95.5396 95.8368 95.4538 95.5335 95.3895V94.3813H98.2416V94.3598Z" fill="white"/>
</svg>
