<svg width="24" height="51" viewBox="0 0 24 51" fill="none" xmlns="http://www.w3.org/2000/svg">
<path d="M11.7098 50.1596C11.9352 50.1596 12.1513 50.0701 12.3107 49.9107C12.47 49.7514 12.5596 49.5352 12.5596 49.3098V37.8095C12.5596 37.5841 12.47 37.368 12.3107 37.2086C12.1513 37.0493 11.9352 36.9597 11.7098 36.9597C11.4844 36.9597 11.2683 37.0493 11.1089 37.2086C10.9495 37.368 10.86 37.5841 10.86 37.8095V49.2872C10.857 49.4007 10.8767 49.5136 10.9181 49.6193C10.9594 49.7251 11.0215 49.8214 11.1008 49.9028C11.18 49.9841 11.2747 50.0487 11.3793 50.0928C11.4839 50.1369 11.5963 50.1597 11.7098 50.1596Z" fill="white"/>
<path d="M11.7097 50.1596C11.9186 50.1599 12.1203 50.0833 12.2763 49.9443L17.3749 45.4802C17.4586 45.4058 17.5268 45.3156 17.5757 45.2149C17.6246 45.1141 17.6531 45.0047 17.6597 44.8929C17.6662 44.7811 17.6507 44.6691 17.614 44.5633C17.5773 44.4575 17.5201 44.36 17.4457 44.2763C17.3713 44.1926 17.2812 44.1244 17.1804 44.0755C17.0797 44.0267 16.9703 43.9982 16.8585 43.9916C16.7467 43.985 16.6347 44.0005 16.5289 44.0372C16.4231 44.0739 16.3256 44.1311 16.2419 44.2055L11.1432 48.6697C11.0588 48.7423 10.9896 48.831 10.9395 48.9305C10.8895 49.0301 10.8597 49.1385 10.8518 49.2497C10.8439 49.3608 10.8581 49.4724 10.8935 49.578C10.9289 49.6836 10.9849 49.7812 11.0582 49.865C11.1394 49.9579 11.2396 50.0323 11.352 50.0831C11.4644 50.134 11.5864 50.16 11.7097 50.1596Z" fill="white"/>
<path d="M11.7099 50.1596C11.8835 50.1612 12.0535 50.1095 12.1969 50.0116C12.3402 49.9137 12.4502 49.7742 12.5119 49.6119C12.5736 49.4496 12.5841 49.2723 12.542 49.1038C12.4999 48.9354 12.4072 48.7839 12.2764 48.6697L7.17774 44.2055C7.09404 44.1311 6.99651 44.0739 6.89072 44.0372C6.78492 44.0005 6.67294 43.985 6.56115 43.9916C6.44936 43.9982 6.33996 44.0267 6.2392 44.0755C6.13844 44.1244 6.04828 44.1926 5.97389 44.2763C5.89949 44.36 5.84231 44.4575 5.8056 44.5633C5.7689 44.6691 5.75339 44.7811 5.75997 44.8929C5.76654 45.0047 5.79507 45.1141 5.84393 45.2149C5.89278 45.3156 5.96101 45.4058 6.0447 45.4802L11.1434 49.9443C11.2985 50.0847 11.5007 50.1616 11.7099 50.1596Z" fill="white"/>
<path d="M8.57672 33.5776H14.8481C17.1174 33.5746 19.293 32.6718 20.8977 31.0671C22.5024 29.4624 23.4052 27.2868 23.4082 25.0175V8.58843C23.4104 7.46234 23.1907 6.34684 22.7617 5.30569C22.3326 4.26453 21.7026 3.31812 20.9077 2.52053C20.1127 1.72295 19.1684 1.08983 18.1287 0.657344C17.0889 0.224861 15.9742 0.00149384 14.8481 7.49679e-06H8.57672C7.45137 -0.00148131 6.33676 0.218792 5.29657 0.648242C4.25639 1.07769 3.31102 1.7079 2.51449 2.50285C1.71796 3.2978 1.08588 4.24192 0.654364 5.28125C0.222853 6.32058 0.000368118 7.43476 -0.000375748 8.56011V25.0175C0.000368118 26.1428 0.222853 27.257 0.654364 28.2963C1.08588 29.3357 1.71796 30.2798 2.51449 31.0747C3.31102 31.8697 4.25639 32.4999 5.29657 32.9293C6.33676 33.3588 7.45137 33.5791 8.57672 33.5776ZM14.8481 1.69956C16.6672 1.70106 18.4113 2.42435 19.6976 3.71063C20.9838 4.9969 21.7071 6.74104 21.7086 8.56011V25.0175C21.7056 26.8361 20.9819 28.5794 19.6959 29.8653C18.41 31.1513 16.6667 31.875 14.8481 31.878H8.57672C7.67456 31.8795 6.78095 31.7032 5.94696 31.3592C5.11298 31.0151 4.35497 30.5101 3.71626 29.873C3.07754 29.2358 2.57065 28.4791 2.22455 27.6459C1.87845 26.8128 1.69992 25.9196 1.69918 25.0175V8.58843C1.6962 7.68389 1.87197 6.78767 2.2164 5.95127C2.56083 5.11486 3.06713 4.35476 3.70621 3.71462C4.3453 3.07448 5.10457 2.56693 5.94041 2.22112C6.77625 1.87531 7.67217 1.69807 8.57672 1.69956H14.8481Z" fill="white"/>
<path d="M11.7098 14.112C11.9352 14.112 12.1513 14.0225 12.3107 13.8631C12.47 13.7037 12.5596 13.4876 12.5596 13.2622V8.99632C12.5596 8.77095 12.47 8.5548 12.3107 8.39544C12.1513 8.23608 11.9352 8.14655 11.7098 8.14655C11.4844 8.14655 11.2683 8.23608 11.1089 8.39544C10.9495 8.5548 10.86 8.77095 10.86 8.99632V13.2622C10.86 13.4876 10.9495 13.7037 11.1089 13.8631C11.2683 14.0225 11.4844 14.112 11.7098 14.112Z" fill="white"/>
</svg>
