<svg width="313" height="446" viewBox="0 0 313 446" fill="none" xmlns="http://www.w3.org/2000/svg">
<path d="M110.324 438.958C107.986 438.958 107.986 438.958 105.648 438.958C65.9024 417.832 40.1844 396.705 21.4804 368.537C5.11438 342.716 -1.89963 312.2 0.438375 281.684C2.77638 258.211 9.79038 232.389 23.8184 204.221C33.1704 185.442 47.1984 164.316 61.2264 143.189L63.5644 140.842C65.9024 138.495 70.5784 136.147 75.2544 138.495C79.9304 140.842 82.2684 143.189 82.2684 147.884V152.579C86.9444 126.758 96.2964 100.937 110.324 79.8105C129.028 51.6421 154.747 25.821 187.479 2.34733C187.479 2.34733 189.817 0 192.155 0C194.493 0 199.169 -3.5853e-05 201.507 2.34733C203.845 4.6947 206.183 7.04211 206.183 11.7368C206.183 14.0842 206.183 16.4316 206.183 18.7789C199.169 53.9895 206.183 89.1999 224.887 126.758C234.239 143.189 243.591 157.274 255.281 173.705L257.619 178.4C266.971 192.484 278.661 208.916 288.013 223C297.365 237.084 304.379 253.516 309.055 269.947C316.069 295.768 313.731 321.589 302.041 347.411C292.689 368.537 278.661 387.316 257.619 406.095C250.605 413.137 243.591 420.179 236.577 427.221L227.225 436.611C222.549 438.958 217.873 441.305 213.197 436.611C210.859 431.916 208.521 424.874 210.859 420.179L213.197 415.484C220.211 399.053 224.887 387.316 227.225 373.232C229.563 356.8 227.225 342.716 220.211 330.979C217.873 323.937 213.197 319.242 210.859 314.547L206.183 307.505C203.845 302.81 201.507 300.463 199.169 295.768C194.493 286.379 187.479 279.337 182.803 269.947C175.789 255.863 171.113 241.779 168.775 227.695C143.056 260.558 140.718 295.768 154.746 340.368C157.085 345.063 154.747 349.758 152.408 352.105C150.07 354.453 145.394 356.8 140.718 354.453H138.38C136.042 354.453 136.042 352.105 133.704 352.105C122.014 345.063 110.324 335.674 100.972 323.937C98.6345 342.716 98.6345 363.842 105.648 384.968C107.986 396.705 115 410.789 122.014 424.874C124.352 427.221 126.69 431.916 124.352 438.958C124.352 441.305 122.014 443.653 117.338 446C112.662 438.958 110.324 438.958 110.324 438.958ZM65.9024 173.705C56.5504 187.789 49.5364 199.526 42.5224 213.61C30.8324 239.432 23.8184 260.558 21.4804 281.684C19.1424 309.853 23.8184 333.326 37.8464 356.8C49.5364 375.579 65.9024 389.663 86.9444 403.747C84.6064 396.705 82.2684 389.663 79.9304 382.621C72.9164 352.105 70.5784 326.284 77.5924 300.463C77.5924 298.116 79.9304 295.768 79.9304 291.074L82.2684 286.379C84.6064 281.684 86.9444 279.337 91.6204 279.337C96.2964 279.337 100.972 281.684 100.972 284.032L103.31 288.726C105.648 291.074 105.648 293.421 107.986 295.768C112.662 302.81 117.338 309.853 124.352 314.547C115 265.253 129.028 225.347 166.437 190.137C168.775 187.789 173.451 185.442 178.127 187.789C182.803 190.137 185.141 192.484 185.141 197.179C185.141 201.874 185.141 201.874 185.141 204.221C185.141 223 189.817 241.779 199.169 255.863C203.845 265.253 208.521 272.295 215.535 281.684C217.873 286.379 220.211 291.074 222.549 293.421L227.225 300.463C231.901 307.505 234.239 312.2 238.915 319.242C248.267 335.674 250.605 354.453 248.267 375.579C248.267 380.274 245.929 384.968 245.929 389.663C245.929 389.663 245.929 389.663 248.267 387.316C266.971 368.537 278.661 352.105 288.013 333.326C297.365 312.2 299.703 291.074 295.027 269.947C290.351 255.863 285.675 241.779 276.323 230.042C266.971 215.958 257.619 199.526 245.929 185.442L243.591 180.747C234.239 166.663 222.549 150.232 213.197 131.453C194.493 96.2421 187.479 63.3789 189.817 28.1684C168.775 44.5999 150.07 65.7262 136.042 86.8526C112.662 122.063 105.648 159.621 110.324 201.874C110.324 206.568 112.662 213.611 112.662 218.305V225.347C112.662 230.042 112.662 232.389 107.986 234.737C105.648 237.084 100.972 237.084 96.2965 234.737C93.9585 232.389 89.2824 230.042 86.9444 227.695C79.9304 218.305 75.2544 208.916 72.9164 197.179C68.2404 192.484 68.2404 183.095 65.9024 173.705Z" fill="#E4E4E4"/>
</svg>
