<svg width="26" height="26" viewBox="0 0 26 26" fill="none" xmlns="http://www.w3.org/2000/svg">
<path d="M13 0C5.81177 0 0 5.81177 0 13C0 20.1882 5.81177 26 13 26C20.1882 26 26 20.1882 26 13C26 5.81177 20.1882 0 13 0ZM19.4235 17.8941C18.9647 18.8882 18.2765 19.7294 17.5118 20.4941C17.0529 20.9529 16.5176 21.4118 16.0588 21.8706H15.9824C15.9824 21.7941 16.0588 21.7176 16.0588 21.6412C16.3647 20.9529 16.5941 20.2647 16.7471 19.5765C16.9 18.7353 16.7471 17.9706 16.3647 17.2824C16.1353 16.9 15.9059 16.5176 15.6765 16.1353C15.2941 15.5235 14.9118 14.9882 14.6059 14.3765C14.1471 13.6118 13.9941 12.6941 13.9176 11.7765C13.9176 11.7 13.9176 11.6235 13.9176 11.4706C11.9294 13.3059 11.5471 15.5235 12.3882 17.9706C12.2353 17.8941 12.1588 17.8941 12.0824 17.8176C11.3941 17.4353 10.8588 16.9 10.4765 16.2118C10.4 16.0588 10.2471 15.9059 10.1706 15.6765C10.0176 15.9059 9.94118 16.0588 9.94118 16.2882C9.63529 17.5118 9.71177 18.6588 10.0176 19.8824C10.1706 20.5706 10.4765 21.1824 10.7824 21.8706C10.7824 21.9471 10.8588 22.0235 10.8588 22.1C9.40588 21.3353 8.02941 20.4176 7.18824 19.0412C6.42353 17.8941 6.19412 16.5941 6.34706 15.2941C6.5 14.0706 6.88235 13 7.41765 11.9294C7.87647 10.9353 8.48824 10.0941 9.17647 9.17647C9.17647 9.1 9.25294 9.1 9.32941 9.02353C9.32941 9.32941 9.32941 9.63529 9.40588 9.86471C9.48235 10.4 9.55882 10.8588 9.63529 11.3941C9.71177 11.8529 9.94118 12.2353 10.1706 12.6176C10.2471 12.6941 10.3235 12.7706 10.4 12.8471C10.3235 12.4647 10.3235 12.0824 10.2471 11.7765C10.0176 9.71176 10.4765 7.87647 11.5471 6.11765C12.4647 4.74118 13.6118 3.59412 14.9882 2.67647C14.9882 2.67647 14.9882 2.67647 15.0647 2.67647C15.0647 2.75294 15.0647 2.82941 15.0647 2.90588C14.6824 4.81765 15.1412 6.57647 15.9824 8.25882C16.4412 9.02353 16.9 9.78823 17.4353 10.5529C17.9706 11.3176 18.5059 12.0824 18.9647 12.8471C19.3471 13.4588 19.6529 14.1471 19.8824 14.8353C20.0353 15.7529 19.8824 16.8235 19.4235 17.8941Z" fill="white"/>
</svg>
