<svg width="22" height="12" viewBox="0 0 22 12" fill="none" xmlns="http://www.w3.org/2000/svg">
<path d="M10.406 11.0805H11.6474C11.6474 11.0805 12.0223 11.0423 12.214 10.8521C12.3902 10.6772 12.3846 10.349 12.3846 10.349C12.3846 10.349 12.3603 8.81226 13.1333 8.58595C13.8956 8.36292 14.8742 10.0712 15.9114 10.7281C16.6958 11.225 17.2918 11.1163 17.2918 11.1163L20.0655 11.0805C20.0655 11.0805 21.5164 10.9979 20.8284 9.94546C20.7721 9.85951 20.4276 9.16697 18.766 7.7441C17.0267 6.25489 17.2599 6.49582 19.3549 3.91978C20.6307 2.35101 21.1407 1.3933 20.9813 0.983153C20.8295 0.592374 19.891 0.695588 19.891 0.695588L16.7681 0.713408C16.7681 0.713408 16.5365 0.684301 16.3649 0.779028C16.197 0.871685 16.0893 1.08815 16.0893 1.08815C16.0893 1.08815 15.5948 2.30204 14.9359 3.33453C13.5453 5.51294 12.9891 5.62826 12.7618 5.49279C12.233 5.17749 12.3651 4.22639 12.3651 3.55053C12.3651 1.43932 12.7122 0.559097 11.6892 0.331204C11.3498 0.255638 11.0997 0.205649 10.2315 0.197483C9.11719 0.187042 8.17424 0.200632 7.6402 0.442C7.28491 0.602523 7.01079 0.960142 7.17784 0.980733C7.38427 1.00608 7.8516 1.0971 8.09941 1.40814C8.41952 1.80992 8.40833 2.7119 8.40833 2.7119C8.40833 2.7119 8.59226 5.19711 7.97887 5.50574C7.55798 5.71747 6.98048 5.28522 5.74069 3.30884C5.10556 2.29647 4.62586 1.17733 4.62586 1.17733C4.62586 1.17733 4.53349 0.968221 4.3685 0.856286C4.1684 0.72067 3.88878 0.677681 3.88878 0.677681L0.921099 0.695559C0.921099 0.695559 0.475675 0.70705 0.312016 0.885742C0.166407 1.04484 0.300382 1.37352 0.300382 1.37352C0.300382 1.37352 2.62361 6.38817 5.25445 8.9153C7.66698 11.2326 10.406 11.0805 10.406 11.0805Z" fill="white"/>
</svg>
