<svg width="22" height="28" viewBox="0 0 22 28" fill="none" xmlns="http://www.w3.org/2000/svg">
<path d="M21.2974 9.54615C21.1406 9.67217 18.3734 11.2879 18.3734 14.8807C18.3734 19.0363 21.8946 20.5065 22 20.5429C21.9838 20.6325 21.4406 22.5563 20.1435 24.5165C18.9869 26.2414 17.7789 27.9636 15.9413 27.9636C14.1037 27.9636 13.6308 26.8575 11.5094 26.8575C9.44208 26.8575 8.70704 28 7.02616 28C5.34529 28 4.17246 26.4038 2.82398 24.4436C1.26201 22.1418 0 18.5659 0 15.1719C0 9.72817 3.4158 6.84108 6.77755 6.84108C8.56381 6.84108 10.0528 8.05641 11.1743 8.05641C12.2417 8.05641 13.9064 6.76828 15.9386 6.76828C16.7088 6.76828 19.476 6.84108 21.2974 9.54615V9.54615ZM14.9738 4.46365C15.8143 3.43034 16.4088 1.9966 16.4088 0.562856C16.4088 0.364036 16.3926 0.162416 16.3575 0C14.9901 0.0532053 13.3632 0.943695 12.3823 2.12261C11.6121 3.0299 10.8933 4.46365 10.8933 5.91699C10.8933 6.13541 10.9284 6.35384 10.9446 6.42384C11.0311 6.44064 11.1716 6.46025 11.3121 6.46025C12.539 6.46025 14.0821 5.60896 14.9738 4.46365Z" fill="white"/>
</svg>
