<svg width="26" height="21" viewBox="0 0 26 21" fill="none" xmlns="http://www.w3.org/2000/svg">
<path d="M26 15.1097C26 12.7756 24.2273 10.933 21.9818 10.933H21.8636L21.2727 6.75635H21.9818C22.4545 6.75635 22.8091 6.38783 22.8091 5.89645V0.859895C22.8091 0.368524 22.4545 0 21.9818 0H18.7909C17.3727 0 16.0727 0.982742 15.7182 2.45685H14.7727C14.3158 2.45685 13.9455 2.84184 13.9455 3.31675C13.9455 3.79166 14.3158 4.17664 14.7727 4.17664H15.7182C15.8364 4.66802 16.0727 5.15939 16.4273 5.52792V12.53C16.4273 13.0213 16.0727 13.3898 15.6 13.3898H12.4091C11.9364 13.3898 11.5818 13.0213 11.5818 12.53V7.86193C11.9082 7.86193 12.1727 7.58693 12.1727 7.24771V6.81777C12.1727 6.24109 11.723 5.7736 11.1682 5.7736H1.00454C0.44975 5.7736 0 6.24109 0 6.81777C0 7.39444 0.449749 7.86193 1.00454 7.86193H1.77273C0.827273 8.96751 0.354545 10.3188 0.354545 11.7929V15.9696C0.354545 17.3208 1.41818 18.4264 2.71818 18.4264H3.66364C4.13636 20.269 5.90909 21.2518 7.56364 20.8833C9.33636 20.3919 10.2818 18.5492 9.92727 16.8294C9.45455 14.9868 7.68182 14.0041 6.02727 14.3726C4.84546 14.6183 4.01818 15.601 3.66364 16.8294H2.71818C2.24545 16.8294 1.89091 16.4609 1.89091 15.9696V11.7929C1.89091 10.4083 2.58035 9.10329 3.65086 8.32667C4.16548 7.95333 4.81755 7.86193 5.45334 7.86193H9.92727V12.53C9.92727 13.8812 10.9909 14.9868 12.2909 14.9868H15.4818C16.7818 14.9868 17.8455 13.8812 17.8455 12.53V6.51067C18.4364 6.63351 19.0273 6.6335 19.5 6.6335L20.2091 11.7929C20.2091 12.1614 20.5636 12.53 21.0364 12.53H21.8636C22.9273 12.53 23.7545 13.1442 24.1091 14.2498C22.4545 14.2498 22.5727 14.2498 22.3364 14.2498C20.6818 14.0041 19.1455 14.9868 18.6727 16.7066H13C12.5431 16.7066 12.1727 17.0916 12.1727 17.5665C12.1727 18.0414 12.5431 18.4264 13 18.4264H18.6727C19.0273 20.269 20.8 21.3746 22.5727 20.8833C24.3455 20.5147 25.4091 18.6721 24.9364 16.8294C24.8182 16.4609 24.7 16.0924 24.5818 15.8467H25.0545C25.6455 15.9695 26 15.601 26 15.1097ZM6.73636 15.9696C7.68182 15.9696 8.39091 16.7066 8.39091 17.6893C8.39091 18.6721 7.68182 19.4092 6.73636 19.4092C5.79091 19.4092 5.08182 18.6721 5.08182 17.6893C5.08182 16.7066 5.79091 15.9696 6.73636 15.9696ZM21.1545 5.15939H18.7909C17.8455 5.15939 17.1364 4.42234 17.1364 3.4396C17.1364 2.45686 17.8455 1.71979 18.7909 1.71979H21.1545V5.15939ZM21.9818 19.2863C21.0364 19.2863 20.3273 18.5493 20.3273 17.5665C20.3273 16.5838 21.0364 15.8467 21.9818 15.8467C22.9273 15.8467 23.6364 16.5838 23.6364 17.5665C23.6364 18.5493 22.9273 19.2863 21.9818 19.2863Z" fill="white"/>
</svg>
