<svg width="22" height="28" viewBox="0 0 22 28" fill="none" xmlns="http://www.w3.org/2000/svg">
<path d="M0.25 3.75068C0.25 3.27813 0.353816 2.92437 0.517212 2.67892L12.0766 14.4604V14.5252L0.522388 26.3085C0.355651 26.0731 0.25 25.7216 0.25 25.2445V3.75068Z" fill="white" stroke="#FF7F00" stroke-width="0.5"/>
<path d="M20.8757 13.3093L20.8748 13.3089L16.2962 10.6549L12.5674 14.4576V14.5346L16.2962 18.3373L20.8745 15.6835L20.8757 13.3093ZM20.8757 13.3093C21.4953 13.6653 21.7503 14.1033 21.7503 14.4924M20.8757 13.3093L21.7503 14.4924M21.7503 14.4924C21.7503 14.8819 21.4949 15.3225 20.8748 15.6833L21.7503 14.4924Z" fill="white" stroke="#FF7F00" stroke-width="0.5"/>
<path d="M0.800314 26.5979L12.3167 14.8532L15.937 18.5452L2.29107 26.4619C2.29075 26.4621 2.29042 26.4622 2.29009 26.4624C1.65654 26.8219 1.14242 26.8171 0.800314 26.5979Z" fill="white" stroke="#FF7F00" stroke-width="0.5"/>
<path d="M12.3166 14.1394L0.799625 2.40577C1.14176 2.18358 1.65759 2.17353 2.28865 2.54129L2.28922 2.54162L15.9368 10.4474L12.3166 14.1394Z" fill="white" stroke="#FF7F00" stroke-width="0.5"/>
</svg>
