<svg width="24" height="20" viewBox="0 0 24 20" fill="none" xmlns="http://www.w3.org/2000/svg">
<path fill-rule="evenodd" clip-rule="evenodd" d="M22.5528 10L21.2261 1.44578C21.1055 0.602406 20.3819 0 19.5377 0H4.46231C3.61809 0 2.89447 0.722888 2.77387 1.44578L1.44724 10H1.02512C0.458963 10 0 10.4585 0 11.0241C0 11.5897 0.458964 12.0482 1.02512 12.0482H1.44724L2.65327 18.5542C2.77387 19.3976 3.61809 20 4.46231 20H19.5377C20.3819 20 21.2261 19.2771 21.3467 18.5542L22.5528 12.0482H22.9749C23.541 12.0482 24 11.5897 24 11.0241C24 10.4585 23.541 10 22.9749 10H22.5528ZM4.70352 1.9277H19.2965L20.5025 10L16.7638 10C16.7638 7.33839 14.604 5.18073 11.9397 5.18073C9.2754 5.18073 7.11557 7.33839 7.11557 10L3.49749 10L4.70352 1.9277ZM9.66874 10.5952C9.39325 10.3353 9.38702 9.89942 9.65496 9.63174C9.91759 9.36938 10.3434 9.36938 10.606 9.63174L11.3365 10.3615L13.3926 8.20965C13.654 7.9361 14.0895 7.93105 14.3572 8.19845C14.6205 8.46152 14.6205 8.88803 14.3572 9.1511L11.7113 11.7943C11.5026 12.0028 11.1657 12.0076 10.9511 11.8051L9.66874 10.5952ZM7.51697 11.9277C8.26139 13.6298 9.96149 14.8193 11.9397 14.8193C13.9179 14.8193 15.618 13.6298 16.3624 11.9277H20.3819L19.4171 17.9518H4.46231L3.37688 11.9277H7.51697Z" fill="white"/>
</svg>
