<svg width="129" height="128" viewBox="0 0 129 128" fill="none" xmlns="http://www.w3.org/2000/svg">
<path d="M56.3212 0H51.2012V5.12H56.3212V0Z" fill="black"/>
<path d="M61.4413 0H56.3213V5.12H61.4413V0Z" fill="black"/>
<path d="M71.6815 0H66.5615V5.12H71.6815V0Z" fill="black"/>
<path d="M87.0419 0H81.9219V5.12H87.0419V0Z" fill="black"/>
<path d="M51.2001 5.12012H46.0801V10.2401H51.2001V5.12012Z" fill="black"/>
<path d="M56.3212 5.12061H51.2012V10.2406H56.3212V5.12061Z" fill="black"/>
<path d="M71.6815 5.12012H66.5615V10.2401H71.6815V5.12012Z" fill="black"/>
<path d="M76.8016 5.12012H71.6816V10.2401H76.8016V5.12012Z" fill="black"/>
<path d="M81.9218 5.12012H76.8018V10.2401H81.9218V5.12012Z" fill="black"/>
<path d="M46.0829 10.2391H40.9629V15.3591H46.0829V10.2391Z" fill="black"/>
<path d="M51.2001 10.2402H46.0801V15.3602H51.2001V10.2402Z" fill="black"/>
<path d="M61.4413 10.2403H56.3213V15.3603H61.4413V10.2403Z" fill="black"/>
<path d="M76.8016 10.2397H71.6816V15.3598H76.8016V10.2397Z" fill="black"/>
<path d="M81.9218 10.2397H76.8018V15.3598H81.9218V10.2397Z" fill="black"/>
<path d="M87.0419 10.2399H81.9219V15.3599H87.0419V10.2399Z" fill="black"/>
<path d="M46.0829 15.3605H40.9629V20.4805H46.0829V15.3605Z" fill="black"/>
<path d="M51.2001 15.3604H46.0801V20.4804H51.2001V15.3604Z" fill="black"/>
<path d="M61.4413 15.3605H56.3213V20.4805H61.4413V15.3605Z" fill="black"/>
<path d="M71.6815 15.3599H66.5615V20.4799H71.6815V15.3599Z" fill="black"/>
<path d="M81.9218 15.3599H76.8018V20.4799H81.9218V15.3599Z" fill="black"/>
<path d="M87.0419 15.3601H81.9219V20.4801H87.0419V15.3601Z" fill="black"/>
<path d="M46.0829 20.4796H40.9629V25.5996H46.0829V20.4796Z" fill="black"/>
<path d="M61.4413 20.4796H56.3213V25.5996H61.4413V20.4796Z" fill="black"/>
<path d="M71.6815 20.4805H66.5615V25.6005H71.6815V20.4805Z" fill="black"/>
<path d="M87.0419 20.4803H81.9219V25.6003H87.0419V20.4803Z" fill="black"/>
<path d="M46.0829 25.5996H40.9629V30.7196H46.0829V25.5996Z" fill="black"/>
<path d="M61.4413 25.5999H56.3213V30.7199H61.4413V25.5999Z" fill="black"/>
<path d="M71.6815 25.6001H66.5615V30.7201H71.6815V25.6001Z" fill="black"/>
<path d="M76.8016 25.6001H71.6816V30.7201H76.8016V25.6001Z" fill="black"/>
<path d="M81.9218 25.6001H76.8018V30.7201H81.9218V25.6001Z" fill="black"/>
<path d="M46.0829 30.7202H40.9629V35.8402H46.0829V30.7202Z" fill="black"/>
<path d="M56.3212 30.7202H51.2012V35.8402H56.3212V30.7202Z" fill="black"/>
<path d="M66.5614 30.7197H61.4414V35.8397H66.5614V30.7197Z" fill="black"/>
<path d="M76.8016 30.7202H71.6816V35.8402H76.8016V30.7202Z" fill="black"/>
<path d="M87.0419 30.7198H81.9219V35.8398H87.0419V30.7198Z" fill="black"/>
<path d="M46.0829 35.8401H40.9629V40.9602H46.0829V35.8401Z" fill="black"/>
<path d="M51.2001 35.8403H46.0801V40.9603H51.2001V35.8403Z" fill="black"/>
<path d="M56.3212 35.8403H51.2012V40.9603H56.3212V35.8403Z" fill="black"/>
<path d="M61.4413 35.8401H56.3213V40.9602H61.4413V35.8401Z" fill="black"/>
<path d="M66.5614 35.8398H61.4414V40.9598H66.5614V35.8398Z" fill="black"/>
<path d="M76.8016 35.8398H71.6816V40.9598H76.8016V35.8398Z" fill="black"/>
<path d="M87.0419 35.84H81.9219V40.96H87.0419V35.84Z" fill="black"/>
<path d="M5.12098 40.96H0.000976562V46.08H5.12098V40.96Z" fill="black"/>
<path d="M15.3612 40.96H10.2412V46.08H15.3612V40.96Z" fill="black"/>
<path d="M20.4813 40.9601H15.3613V46.0801H20.4813V40.9601Z" fill="black"/>
<path d="M25.6014 40.9601H20.4814V46.0801H25.6014V40.9601Z" fill="black"/>
<path d="M30.7216 40.9601H25.6016V46.0801H30.7216V40.9601Z" fill="black"/>
<path d="M35.8417 40.9604H30.7217V46.0805H35.8417V40.9604Z" fill="black"/>
<path d="M61.4413 40.9604H56.3213V46.0805H61.4413V40.9604Z" fill="black"/>
<path d="M66.5614 40.96H61.4414V46.08H66.5614V40.96Z" fill="black"/>
<path d="M71.6815 40.96H66.5615V46.08H71.6815V40.96Z" fill="black"/>
<path d="M76.8016 40.96H71.6816V46.08H76.8016V40.96Z" fill="black"/>
<path d="M97.2821 40.9601H92.1621V46.0801H97.2821V40.9601Z" fill="black"/>
<path d="M102.4 40.9604H97.2803V46.0805H102.4V40.9604Z" fill="black"/>
<path d="M107.52 40.9604H102.4V46.0805H107.52V40.9604Z" fill="black"/>
<path d="M112.641 40.9604H107.521V46.0805H112.641V40.9604Z" fill="black"/>
<path d="M117.761 40.96H112.641V46.08H117.761V40.96Z" fill="black"/>
<path d="M5.12098 46.0801H0.000976562V51.2001H5.12098V46.0801Z" fill="black"/>
<path d="M10.2421 46.0801H5.12207V51.2001H10.2421V46.0801Z" fill="black"/>
<path d="M20.4813 46.0799H15.3613V51.1999H20.4813V46.0799Z" fill="black"/>
<path d="M30.7216 46.0799H25.6016V51.1999H30.7216V46.0799Z" fill="black"/>
<path d="M46.0829 46.0795H40.9629V51.1995H46.0829V46.0795Z" fill="black"/>
<path d="M51.2001 46.0796H46.0801V51.1996H51.2001V46.0796Z" fill="black"/>
<path d="M56.3212 46.0796H51.2012V51.1996H56.3212V46.0796Z" fill="black"/>
<path d="M66.5614 46.0801H61.4414V51.2001H66.5614V46.0801Z" fill="black"/>
<path d="M76.8016 46.0801H71.6816V51.2001H76.8016V46.0801Z" fill="black"/>
<path d="M102.4 46.0796H97.2803V51.1996H102.4V46.0796Z" fill="black"/>
<path d="M122.881 46.0801H117.761V51.2001H122.881V46.0801Z" fill="black"/>
<path d="M15.3612 51.2002H10.2412V56.3202H15.3612V51.2002Z" fill="black"/>
<path d="M20.4813 51.2001H15.3613V56.3201H20.4813V51.2001Z" fill="black"/>
<path d="M30.7216 51.2001H25.6016V56.3201H30.7216V51.2001Z" fill="black"/>
<path d="M35.8417 51.1997H30.7217V56.3197H35.8417V51.1997Z" fill="black"/>
<path d="M51.2001 51.1997H46.0801V56.3197H51.2001V51.1997Z" fill="black"/>
<path d="M66.5614 51.2002H61.4414V56.3202H66.5614V51.2002Z" fill="black"/>
<path d="M81.9218 51.2002H76.8018V56.3202H81.9218V51.2002Z" fill="black"/>
<path d="M87.0419 51.2001H81.9219V56.3201H87.0419V51.2001Z" fill="black"/>
<path d="M92.162 51.1997H87.042V56.3197H92.162V51.1997Z" fill="black"/>
<path d="M102.4 51.1997H97.2803V56.3197H102.4V51.1997Z" fill="black"/>
<path d="M107.52 51.1997H102.4V56.3197H107.52V51.1997Z" fill="black"/>
<path d="M112.641 51.1997H107.521V56.3197H112.641V51.1997Z" fill="black"/>
<path d="M122.881 51.2002H117.761V56.3202H122.881V51.2002Z" fill="black"/>
<path d="M128.002 51.2002H122.882V56.3202H128.002V51.2002Z" fill="black"/>
<path d="M15.3612 56.3203H10.2412V61.4403H15.3612V56.3203Z" fill="black"/>
<path d="M20.4813 56.3202H15.3613V61.4402H20.4813V56.3202Z" fill="black"/>
<path d="M25.6014 56.3202H20.4814V61.4402H25.6014V56.3202Z" fill="black"/>
<path d="M30.7216 56.3202H25.6016V61.4402H30.7216V56.3202Z" fill="black"/>
<path d="M51.2001 56.3198H46.0801V61.4398H51.2001V56.3198Z" fill="black"/>
<path d="M61.4413 56.32H56.3213V61.44H61.4413V56.32Z" fill="black"/>
<path d="M102.4 56.3198H97.2803V61.4398H102.4V56.3198Z" fill="black"/>
<path d="M107.52 56.3198H102.4V61.4398H107.52V56.3198Z" fill="black"/>
<path d="M128.002 56.3203H122.882V61.4403H128.002V56.3203Z" fill="black"/>
<path d="M10.2421 61.4399H5.12207V66.5599H10.2421V61.4399Z" fill="black"/>
<path d="M20.4813 61.4399H15.3613V66.5599H20.4813V61.4399Z" fill="black"/>
<path d="M30.7216 61.4399H25.6016V66.5599H30.7216V61.4399Z" fill="black"/>
<path d="M35.8417 61.44H30.7217V66.56H35.8417V61.44Z" fill="black"/>
<path d="M61.4413 61.44H56.3213V66.56H61.4413V61.44Z" fill="black"/>
<path d="M66.5614 61.4399H61.4414V66.5599H66.5614V61.4399Z" fill="black"/>
<path d="M71.6815 61.4399H66.5615V66.5599H71.6815V61.4399Z" fill="black"/>
<path d="M76.8016 61.4399H71.6816V66.5599H76.8016V61.4399Z" fill="black"/>
<path d="M92.162 61.4399H87.042V66.5599H92.162V61.4399Z" fill="black"/>
<path d="M97.2821 61.4399H92.1621V66.5599H97.2821V61.4399Z" fill="black"/>
<path d="M107.52 61.4404H102.4V66.5604H107.52V61.4404Z" fill="black"/>
<path d="M117.761 61.4399H112.641V66.5599H117.761V61.4399Z" fill="black"/>
<path d="M122.881 61.4404H117.761V66.5604H122.881V61.4404Z" fill="black"/>
<path d="M128.002 61.4399H122.882V66.5599H128.002V61.4399Z" fill="black"/>
<path d="M5.12098 66.5601H0.000976562V71.6801H5.12098V66.5601Z" fill="black"/>
<path d="M10.2421 66.5601H5.12207V71.6801H10.2421V66.5601Z" fill="black"/>
<path d="M30.7216 66.5601H25.6016V71.6801H30.7216V66.5601Z" fill="black"/>
<path d="M40.9598 66.5603H35.8398V71.6803H40.9598V66.5603Z" fill="black"/>
<path d="M56.3212 66.5601H51.2012V71.6801H56.3212V66.5601Z" fill="black"/>
<path d="M76.8016 66.5601H71.6816V71.6801H76.8016V66.5601Z" fill="black"/>
<path d="M87.0419 66.5601H81.9219V71.6801H87.0419V66.5601Z" fill="black"/>
<path d="M102.4 66.5601H97.2803V71.6801H102.4V66.5601Z" fill="black"/>
<path d="M112.641 66.5601H107.521V71.6801H112.641V66.5601Z" fill="black"/>
<path d="M122.881 66.5596H117.761V71.6796H122.881V66.5596Z" fill="black"/>
<path d="M5.12098 71.6797H0.000976562V76.7997H5.12098V71.6797Z" fill="black"/>
<path d="M15.3612 71.6797H10.2412V76.7997H15.3612V71.6797Z" fill="black"/>
<path d="M25.6014 71.6799H20.4814V76.7999H25.6014V71.6799Z" fill="black"/>
<path d="M35.8417 71.6803H30.7217V76.8003H35.8417V71.6803Z" fill="black"/>
<path d="M40.9598 71.6803H35.8398V76.8003H40.9598V71.6803Z" fill="black"/>
<path d="M51.2001 71.6802H46.0801V76.8002H51.2001V71.6802Z" fill="black"/>
<path d="M61.4413 71.6803H56.3213V76.8003H61.4413V71.6803Z" fill="black"/>
<path d="M66.5614 71.6797H61.4414V76.7997H66.5614V71.6797Z" fill="black"/>
<path d="M81.9218 71.6797H76.8018V76.7997H81.9218V71.6797Z" fill="black"/>
<path d="M92.162 71.6802H87.042V76.8002H92.162V71.6802Z" fill="black"/>
<path d="M97.2821 71.6799H92.1621V76.7999H97.2821V71.6799Z" fill="black"/>
<path d="M102.4 71.6802H97.2803V76.8002H102.4V71.6802Z" fill="black"/>
<path d="M107.52 71.6802H102.4V76.8002H107.52V71.6802Z" fill="black"/>
<path d="M112.641 71.6802H107.521V76.8002H112.641V71.6802Z" fill="black"/>
<path d="M122.881 71.6797H117.761V76.7997H122.881V71.6797Z" fill="black"/>
<path d="M128.002 71.6797H122.882V76.7997H128.002V71.6797Z" fill="black"/>
<path d="M5.12098 76.8003H0.000976562V81.9203H5.12098V76.8003Z" fill="black"/>
<path d="M20.4813 76.8H15.3613V81.9201H20.4813V76.8Z" fill="black"/>
<path d="M25.6014 76.8H20.4814V81.9201H25.6014V76.8Z" fill="black"/>
<path d="M46.0829 76.7996H40.9629V81.9196H46.0829V76.7996Z" fill="black"/>
<path d="M51.2001 76.7998H46.0801V81.9198H51.2001V76.7998Z" fill="black"/>
<path d="M61.4413 76.7996H56.3213V81.9196H61.4413V76.7996Z" fill="black"/>
<path d="M76.8016 76.8003H71.6816V81.9203H76.8016V76.8003Z" fill="black"/>
<path d="M87.0419 76.8H81.9219V81.9201H87.0419V76.8Z" fill="black"/>
<path d="M92.162 76.7998H87.042V81.9198H92.162V76.7998Z" fill="black"/>
<path d="M97.2821 76.8H92.1621V81.9201H97.2821V76.8Z" fill="black"/>
<path d="M102.4 76.7998H97.2803V81.9198H102.4V76.7998Z" fill="black"/>
<path d="M107.52 76.7998H102.4V81.9198H107.52V76.7998Z" fill="black"/>
<path d="M128.002 76.8003H122.882V81.9203H128.002V76.8003Z" fill="black"/>
<path d="M5.12098 81.9204H0.000976562V87.0404H5.12098V81.9204Z" fill="black"/>
<path d="M20.4813 81.9202H15.3613V87.0402H20.4813V81.9202Z" fill="black"/>
<path d="M30.7216 81.9202H25.6016V87.0402H30.7216V81.9202Z" fill="black"/>
<path d="M35.8417 81.9199H30.7217V87.0399H35.8417V81.9199Z" fill="black"/>
<path d="M40.9598 81.9199H35.8398V87.0399H40.9598V81.9199Z" fill="black"/>
<path d="M61.4413 81.9199H56.3213V87.0399H61.4413V81.9199Z" fill="black"/>
<path d="M66.5614 81.9204H61.4414V87.0404H66.5614V81.9204Z" fill="black"/>
<path d="M71.6815 81.9204H66.5615V87.0404H71.6815V81.9204Z" fill="black"/>
<path d="M76.8016 81.9204H71.6816V87.0404H76.8016V81.9204Z" fill="black"/>
<path d="M87.0419 81.9202H81.9219V87.0402H87.0419V81.9202Z" fill="black"/>
<path d="M92.162 81.9199H87.042V87.0399H92.162V81.9199Z" fill="black"/>
<path d="M97.2821 81.9202H92.1621V87.0402H97.2821V81.9202Z" fill="black"/>
<path d="M102.4 81.9199H97.2803V87.0399H102.4V81.9199Z" fill="black"/>
<path d="M107.52 81.9199H102.4V87.0399H107.52V81.9199Z" fill="black"/>
<path d="M117.761 81.9204H112.641V87.0404H117.761V81.9204Z" fill="black"/>
<path d="M46.0829 87.0399H40.9629V92.1599H46.0829V87.0399Z" fill="black"/>
<path d="M51.2001 87.04H46.0801V92.16H51.2001V87.04Z" fill="black"/>
<path d="M56.3212 87.0396H51.2012V92.1596H56.3212V87.0396Z" fill="black"/>
<path d="M66.5614 87.04H61.4414V92.16H66.5614V87.04Z" fill="black"/>
<path d="M71.6815 87.04H66.5615V92.16H71.6815V87.04Z" fill="black"/>
<path d="M76.8016 87.04H71.6816V92.16H76.8016V87.04Z" fill="black"/>
<path d="M81.9218 87.04H76.8018V92.16H81.9218V87.04Z" fill="black"/>
<path d="M87.0419 87.04H81.9219V92.16H87.0419V87.04Z" fill="black"/>
<path d="M107.52 87.04H102.4V92.16H107.52V87.04Z" fill="black"/>
<path d="M112.641 87.04H107.521V92.16H112.641V87.04Z" fill="black"/>
<path d="M56.3212 92.1602H51.2012V97.2802H56.3212V92.1602Z" fill="black"/>
<path d="M87.0419 92.1602H81.9219V97.2802H87.0419V92.1602Z" fill="black"/>
<path d="M97.2821 92.1602H92.1621V97.2802H97.2821V92.1602Z" fill="black"/>
<path d="M107.52 92.1602H102.4V97.2802H107.52V92.1602Z" fill="black"/>
<path d="M117.761 92.1602H112.641V97.2802H117.761V92.1602Z" fill="black"/>
<path d="M122.881 92.1602H117.761V97.2802H122.881V92.1602Z" fill="black"/>
<path d="M128.002 92.1602H122.882V97.2802H128.002V92.1602Z" fill="black"/>
<path d="M46.0829 97.2804H40.9629V102.4H46.0829V97.2804Z" fill="black"/>
<path d="M51.2001 97.2803H46.0801V102.4H51.2001V97.2803Z" fill="black"/>
<path d="M66.5614 97.2798H61.4414V102.4H66.5614V97.2798Z" fill="black"/>
<path d="M76.8016 97.2803H71.6816V102.4H76.8016V97.2803Z" fill="black"/>
<path d="M87.0419 97.2799H81.9219V102.4H87.0419V97.2799Z" fill="black"/>
<path d="M107.52 97.2798H102.4V102.4H107.52V97.2798Z" fill="black"/>
<path d="M112.641 97.2803H107.521V102.4H112.641V97.2803Z" fill="black"/>
<path d="M122.881 97.2793H117.761V102.399H122.881V97.2793Z" fill="black"/>
<path d="M128.002 97.2798H122.882V102.4H128.002V97.2798Z" fill="black"/>
<path d="M46.0829 102.401H40.9629V107.521H46.0829V102.401Z" fill="black"/>
<path d="M51.2001 102.4H46.0801V107.52H51.2001V102.4Z" fill="black"/>
<path d="M56.3212 102.4H51.2012V107.52H56.3212V102.4Z" fill="black"/>
<path d="M61.4413 102.4H56.3213V107.52H61.4413V102.4Z" fill="black"/>
<path d="M71.6815 102.4H66.5615V107.52H71.6815V102.4Z" fill="black"/>
<path d="M76.8016 102.4H71.6816V107.52H76.8016V102.4Z" fill="black"/>
<path d="M81.9218 102.4H76.8018V107.52H81.9218V102.4Z" fill="black"/>
<path d="M87.0419 102.4H81.9219V107.52H87.0419V102.4Z" fill="black"/>
<path d="M92.162 102.401H87.042V107.521H92.162V102.401Z" fill="black"/>
<path d="M97.2821 102.401H92.1621V107.521H97.2821V102.401Z" fill="black"/>
<path d="M102.4 102.4H97.2803V107.52H102.4V102.4Z" fill="black"/>
<path d="M107.52 102.4H102.4V107.52H107.52V102.4Z" fill="black"/>
<path d="M117.761 102.4H112.641V107.52H117.761V102.4Z" fill="black"/>
<path d="M46.0829 107.521H40.9629V112.641H46.0829V107.521Z" fill="black"/>
<path d="M51.2001 107.52H46.0801V112.64H51.2001V107.52Z" fill="black"/>
<path d="M61.4413 107.521H56.3213V112.641H61.4413V107.521Z" fill="black"/>
<path d="M66.5614 107.52H61.4414V112.64H66.5614V107.52Z" fill="black"/>
<path d="M76.8016 107.52H71.6816V112.64H76.8016V107.52Z" fill="black"/>
<path d="M92.162 107.521H87.042V112.641H92.162V107.521Z" fill="black"/>
<path d="M97.2821 107.52H92.1621V112.64H97.2821V107.52Z" fill="black"/>
<path d="M107.52 107.52H102.4V112.64H107.52V107.52Z" fill="black"/>
<path d="M112.641 107.521H107.521V112.641H112.641V107.521Z" fill="black"/>
<path d="M117.761 107.52H112.641V112.64H117.761V107.52Z" fill="black"/>
<path d="M122.881 107.52H117.761V112.64H122.881V107.52Z" fill="black"/>
<path d="M128.002 107.52H122.882V112.64H128.002V107.52Z" fill="black"/>
<path d="M46.0829 112.64H40.9629V117.76H46.0829V112.64Z" fill="black"/>
<path d="M51.2001 112.64H46.0801V117.76H51.2001V112.64Z" fill="black"/>
<path d="M56.3212 112.64H51.2012V117.76H56.3212V112.64Z" fill="black"/>
<path d="M66.5614 112.641H61.4414V117.761H66.5614V112.641Z" fill="black"/>
<path d="M71.6815 112.641H66.5615V117.761H71.6815V112.641Z" fill="black"/>
<path d="M81.9218 112.64H76.8018V117.76H81.9218V112.64Z" fill="black"/>
<path d="M87.0419 112.64H81.9219V117.76H87.0419V112.64Z" fill="black"/>
<path d="M112.641 112.64H107.521V117.76H112.641V112.64Z" fill="black"/>
<path d="M117.761 112.64H112.641V117.76H117.761V112.64Z" fill="black"/>
<path d="M128.002 112.641H122.882V117.761H128.002V112.641Z" fill="black"/>
<path d="M51.2001 117.76H46.0801V122.88H51.2001V117.76Z" fill="black"/>
<path d="M61.4413 117.76H56.3213V122.88H61.4413V117.76Z" fill="black"/>
<path d="M66.5614 117.76H61.4414V122.88H66.5614V117.76Z" fill="black"/>
<path d="M81.9218 117.76H76.8018V122.88H81.9218V117.76Z" fill="black"/>
<path d="M87.0419 117.76H81.9219V122.88H87.0419V117.76Z" fill="black"/>
<path d="M92.162 117.76H87.042V122.88H92.162V117.76Z" fill="black"/>
<path d="M102.4 117.76H97.2803V122.88H102.4V117.76Z" fill="black"/>
<path d="M107.52 117.76H102.4V122.88H107.52V117.76Z" fill="black"/>
<path d="M112.641 117.76H107.521V122.88H112.641V117.76Z" fill="black"/>
<path d="M128.002 117.76H122.882V122.88H128.002V117.76Z" fill="black"/>
<path d="M46.0829 122.88H40.9629V128H46.0829V122.88Z" fill="black"/>
<path d="M51.2001 122.88H46.0801V128H51.2001V122.88Z" fill="black"/>
<path d="M71.6815 122.88H66.5615V128H71.6815V122.88Z" fill="black"/>
<path d="M76.8016 122.88H71.6816V128H76.8016V122.88Z" fill="black"/>
<path d="M97.2821 122.88H92.1621V128H97.2821V122.88Z" fill="black"/>
<path d="M102.4 122.88H97.2803V128H102.4V122.88Z" fill="black"/>
<path d="M107.52 122.88H102.4V128H107.52V122.88Z" fill="black"/>
<path d="M112.641 122.88H107.521V128H112.641V122.88Z" fill="black"/>
<path d="M117.761 122.88H112.641V128H117.761V122.88Z" fill="black"/>
<path d="M122.881 122.88H117.761V128H122.881V122.88Z" fill="black"/>
<path d="M128.002 122.88H122.882V128H128.002V122.88Z" fill="black"/>
<path d="M-0.00018692 23.7337V12.0961C-0.00018692 5.42666 5.49051 0.00012207 12.236 0.00012207H23.6041C30.3492 0.00012207 35.8398 5.42666 35.8398 12.0961V35.8402L12.236 35.833C5.49051 35.833 -0.00018692 30.4068 -0.00018692 23.7337ZM5.37582 23.7337C5.37582 27.441 8.45304 30.4573 12.2374 30.4573L30.4638 30.4627V12.0961C30.4638 8.39063 27.3866 5.37613 23.6041 5.37613H12.236C8.45304 5.37613 5.37582 8.39063 5.37582 12.0961V23.7337Z" fill="black"/>
<path d="M128.002 23.7341V12.0964C128.002 5.42697 122.511 0.000427246 115.766 0.000427246H104.398C97.6528 0.000427246 92.1621 5.42697 92.1621 12.0964V35.8405L115.766 35.8333C122.511 35.8333 128.002 30.4071 128.002 23.7341ZM122.626 23.7341C122.626 27.4413 119.549 30.4576 115.765 30.4576L97.5381 30.463V12.0964C97.5381 8.39094 100.615 5.37643 104.398 5.37643H115.766C119.549 5.37643 122.626 8.39094 122.626 12.0964V23.7341Z" fill="black"/>
<path d="M-0.00018692 104.267V115.904C-0.00018692 122.574 5.49051 128 12.236 128H23.6041C30.3492 128 35.8398 122.574 35.8398 115.904V92.1604L12.236 92.1676C5.49051 92.1676 -0.00018692 97.5937 -0.00018692 104.267ZM5.37582 104.267C5.37582 100.56 8.45304 97.5432 12.2374 97.5432L30.4638 97.5378V115.904C30.4638 119.61 27.3866 122.624 23.6041 122.624H12.236C8.45304 122.624 5.37582 119.61 5.37582 115.904V104.267Z" fill="black"/>
<path d="M25.4473 12.802C25.4473 14.132 24.4307 15.2105 23.1768 15.2105H12.6649C11.4111 15.2105 10.3945 14.132 10.3945 12.802C10.3945 11.472 11.4111 10.3936 12.6649 10.3936H23.1768C24.4307 10.3936 25.4473 11.472 25.4473 12.802Z" fill="black"/>
<path d="M25.4473 23.0379C25.4473 24.3681 24.4307 25.4464 23.1768 25.4464H12.6649C11.4111 25.4464 10.3945 24.3681 10.3945 23.0379C10.3945 21.7077 11.4111 20.6295 12.6649 20.6295H23.1768C24.4307 20.6295 25.4473 21.7077 25.4473 23.0379Z" fill="black"/>
<path d="M25.4473 17.9197C25.4473 19.2499 24.4307 20.3282 23.1768 20.3282H12.6649C11.4111 20.3282 10.3945 19.2499 10.3945 17.9197C10.3945 16.5894 11.4111 15.5113 12.6649 15.5113H23.1768C24.4307 15.5113 25.4473 16.5894 25.4473 17.9197Z" fill="black"/>
<path d="M117.608 12.8016C117.608 14.1316 116.592 15.21 115.338 15.21H104.826C103.572 15.21 102.556 14.1316 102.556 12.8016C102.556 11.4716 103.572 10.3931 104.826 10.3931H115.338C116.592 10.3931 117.608 11.4716 117.608 12.8016Z" fill="black"/>
<path d="M117.608 23.0375C117.608 24.3677 116.592 25.446 115.338 25.446H104.826C103.572 25.446 102.556 24.3677 102.556 23.0375C102.556 21.7074 103.572 20.6291 104.826 20.6291H115.338C116.592 20.6291 117.608 21.7074 117.608 23.0375Z" fill="black"/>
<path d="M117.608 17.9198C117.608 19.25 116.592 20.3283 115.338 20.3283H104.826C103.572 20.3283 102.556 19.25 102.556 17.9198C102.556 16.5895 103.572 15.5114 104.826 15.5114H115.338C116.592 15.5114 117.608 16.5895 117.608 17.9198Z" fill="black"/>
<path d="M25.4473 104.962C25.4473 106.292 24.4307 107.371 23.1768 107.371H12.6649C11.4111 107.371 10.3945 106.292 10.3945 104.962C10.3945 103.632 11.4111 102.554 12.6649 102.554H23.1768C24.4307 102.554 25.4473 103.632 25.4473 104.962Z" fill="black"/>
<path d="M25.4473 115.198C25.4473 116.529 24.4307 117.607 23.1768 117.607H12.6649C11.4111 117.607 10.3945 116.529 10.3945 115.198C10.3945 113.868 11.4111 112.79 12.6649 112.79H23.1768C24.4307 112.79 25.4473 113.868 25.4473 115.198Z" fill="black"/>
<path d="M25.4473 110.08C25.4473 111.411 24.4307 112.489 23.1768 112.489H12.6649C11.4111 112.489 10.3945 111.411 10.3945 110.08C10.3945 108.75 11.4111 107.672 12.6649 107.672H23.1768C24.4307 107.672 25.4473 108.75 25.4473 110.08Z" fill="black"/>
</svg>
