<svg width="79" height="78" viewBox="0 0 79 78" fill="none" xmlns="http://www.w3.org/2000/svg">
<path d="M34.3222 0H31.2021V3.12001H34.3222V0Z" fill="white"/>
<path d="M37.4423 0H34.3223V3.12001H37.4423V0Z" fill="white"/>
<path d="M43.6825 0H40.5625V3.12001H43.6825V0Z" fill="white"/>
<path d="M53.0419 0H49.9219V3.12001H53.0419V0Z" fill="white"/>
<path d="M31.2001 3.12012H28.0801V6.24013H31.2001V3.12012Z" fill="white"/>
<path d="M34.3222 3.12036H31.2021V6.24037H34.3222V3.12036Z" fill="white"/>
<path d="M43.6825 3.12012H40.5625V6.24013H43.6825V3.12012Z" fill="white"/>
<path d="M46.8017 3.12012H43.6816V6.24013H46.8017V3.12012Z" fill="white"/>
<path d="M49.9218 3.12012H46.8018V6.24013H49.9218V3.12012Z" fill="white"/>
<path d="M28.0819 6.2395H24.9619V9.35951H28.0819V6.2395Z" fill="white"/>
<path d="M31.2001 6.24011H28.0801V9.36012H31.2001V6.24011Z" fill="white"/>
<path d="M37.4423 6.24023H34.3223V9.36024H37.4423V6.24023Z" fill="white"/>
<path d="M46.8017 6.23987H43.6816V9.35988H46.8017V6.23987Z" fill="white"/>
<path d="M49.9218 6.23987H46.8018V9.35988H49.9218V6.23987Z" fill="white"/>
<path d="M53.0419 6.23999H49.9219V9.36H53.0419V6.23999Z" fill="white"/>
<path d="M28.0819 9.36035H24.9619V12.4804H28.0819V9.36035Z" fill="white"/>
<path d="M31.2001 9.36023H28.0801V12.4802H31.2001V9.36023Z" fill="white"/>
<path d="M37.4423 9.36035H34.3223V12.4804H37.4423V9.36035Z" fill="white"/>
<path d="M43.6825 9.35986H40.5625V12.4799H43.6825V9.35986Z" fill="white"/>
<path d="M49.9218 9.35986H46.8018V12.4799H49.9218V9.35986Z" fill="white"/>
<path d="M53.0419 9.36011H49.9219V12.4801H53.0419V9.36011Z" fill="white"/>
<path d="M28.0819 12.4797H24.9619V15.5997H28.0819V12.4797Z" fill="white"/>
<path d="M37.4423 12.4797H34.3223V15.5997H37.4423V12.4797Z" fill="white"/>
<path d="M43.6825 12.4802H40.5625V15.6002H43.6825V12.4802Z" fill="white"/>
<path d="M53.0419 12.4802H49.9219V15.6002H53.0419V12.4802Z" fill="white"/>
<path d="M28.0819 15.5999H24.9619V18.7199H28.0819V15.5999Z" fill="white"/>
<path d="M37.4423 15.6H34.3223V18.72H37.4423V15.6Z" fill="white"/>
<path d="M43.6825 15.6001H40.5625V18.7201H43.6825V15.6001Z" fill="white"/>
<path d="M46.8017 15.6001H43.6816V18.7201H46.8017V15.6001Z" fill="white"/>
<path d="M49.9218 15.6001H46.8018V18.7201H49.9218V15.6001Z" fill="white"/>
<path d="M28.0819 18.7201H24.9619V21.8401H28.0819V18.7201Z" fill="white"/>
<path d="M34.3222 18.7202H31.2021V21.8402H34.3222V18.7202Z" fill="white"/>
<path d="M40.5624 18.7198H37.4424V21.8399H40.5624V18.7198Z" fill="white"/>
<path d="M46.8017 18.7202H43.6816V21.8402H46.8017V18.7202Z" fill="white"/>
<path d="M53.0419 18.72H49.9219V21.84H53.0419V18.72Z" fill="white"/>
<path d="M28.0819 21.8401H24.9619V24.9601H28.0819V21.8401Z" fill="white"/>
<path d="M31.2001 21.8402H28.0801V24.9602H31.2001V21.8402Z" fill="white"/>
<path d="M34.3222 21.8403H31.2021V24.9603H34.3222V21.8403Z" fill="white"/>
<path d="M37.4423 21.8401H34.3223V24.9601H37.4423V21.8401Z" fill="white"/>
<path d="M40.5624 21.84H37.4424V24.96H40.5624V21.84Z" fill="white"/>
<path d="M46.8017 21.84H43.6816V24.96H46.8017V21.84Z" fill="white"/>
<path d="M53.0419 21.8401H49.9219V24.9601H53.0419V21.8401Z" fill="white"/>
<path d="M3.12196 24.96H0.00195312V28.08H3.12196V24.96Z" fill="white"/>
<path d="M9.3622 24.96H6.24219V28.08H9.3622V24.96Z" fill="white"/>
<path d="M12.4823 24.9601H9.3623V28.0801H12.4823V24.9601Z" fill="white"/>
<path d="M15.6015 24.9601H12.4814V28.0801H15.6015V24.9601Z" fill="white"/>
<path d="M18.7216 24.9601H15.6016V28.0801H18.7216V24.9601Z" fill="white"/>
<path d="M21.8417 24.9603H18.7217V28.0803H21.8417V24.9603Z" fill="white"/>
<path d="M37.4423 24.9603H34.3223V28.0803H37.4423V24.9603Z" fill="white"/>
<path d="M40.5624 24.96H37.4424V28.08H40.5624V24.96Z" fill="white"/>
<path d="M43.6825 24.96H40.5625V28.08H43.6825V24.96Z" fill="white"/>
<path d="M46.8017 24.96H43.6816V28.08H46.8017V24.96Z" fill="white"/>
<path d="M59.2821 24.9601H56.1621V28.0801H59.2821V24.9601Z" fill="white"/>
<path d="M62.4003 24.9603H59.2803V28.0803H62.4003V24.9603Z" fill="white"/>
<path d="M65.5204 24.9603H62.4004V28.0803H65.5204V24.9603Z" fill="white"/>
<path d="M68.6405 24.9603H65.5205V28.0803H68.6405V24.9603Z" fill="white"/>
<path d="M71.7606 24.9601H68.6406V28.0801H71.7606V24.9601Z" fill="white"/>
<path d="M3.12196 28.0801H0.00195312V31.2001H3.12196V28.0801Z" fill="white"/>
<path d="M6.24208 28.0801H3.12207V31.2001H6.24208V28.0801Z" fill="white"/>
<path d="M12.4823 28.0801H9.3623V31.2001H12.4823V28.0801Z" fill="white"/>
<path d="M18.7216 28.0801H15.6016V31.2001H18.7216V28.0801Z" fill="white"/>
<path d="M28.0819 28.0798H24.9619V31.1998H28.0819V28.0798Z" fill="white"/>
<path d="M31.2001 28.0798H28.0801V31.1998H31.2001V28.0798Z" fill="white"/>
<path d="M34.3222 28.0798H31.2021V31.1998H34.3222V28.0798Z" fill="white"/>
<path d="M40.5624 28.0801H37.4424V31.2001H40.5624V28.0801Z" fill="white"/>
<path d="M46.8017 28.0801H43.6816V31.2001H46.8017V28.0801Z" fill="white"/>
<path d="M62.4003 28.0798H59.2803V31.1998H62.4003V28.0798Z" fill="white"/>
<path d="M74.8827 28.0801H71.7627V31.2001H74.8827V28.0801Z" fill="white"/>
<path d="M9.3622 31.2002H6.24219V34.3202H9.3622V31.2002Z" fill="white"/>
<path d="M12.4823 31.2002H9.3623V34.3202H12.4823V31.2002Z" fill="white"/>
<path d="M18.7216 31.2002H15.6016V34.3202H18.7216V31.2002Z" fill="white"/>
<path d="M21.8417 31.2H18.7217V34.32H21.8417V31.2Z" fill="white"/>
<path d="M31.2001 31.2H28.0801V34.32H31.2001V31.2Z" fill="white"/>
<path d="M40.5624 31.2002H37.4424V34.3202H40.5624V31.2002Z" fill="white"/>
<path d="M49.9218 31.2002H46.8018V34.3202H49.9218V31.2002Z" fill="white"/>
<path d="M53.0419 31.2002H49.9219V34.3202H53.0419V31.2002Z" fill="white"/>
<path d="M56.162 31.2H53.042V34.32H56.162V31.2Z" fill="white"/>
<path d="M62.4003 31.2H59.2803V34.32H62.4003V31.2Z" fill="white"/>
<path d="M65.5204 31.2H62.4004V34.32H65.5204V31.2Z" fill="white"/>
<path d="M68.6405 31.2H65.5205V34.32H68.6405V31.2Z" fill="white"/>
<path d="M74.8827 31.2002H71.7627V34.3202H74.8827V31.2002Z" fill="white"/>
<path d="M78.0018 31.2002H74.8818V34.3202H78.0018V31.2002Z" fill="white"/>
<path d="M9.3622 34.3203H6.24219V37.4403H9.3622V34.3203Z" fill="white"/>
<path d="M12.4823 34.3202H9.3623V37.4402H12.4823V34.3202Z" fill="white"/>
<path d="M15.6015 34.3202H12.4814V37.4402H15.6015V34.3202Z" fill="white"/>
<path d="M18.7216 34.3202H15.6016V37.4402H18.7216V34.3202Z" fill="white"/>
<path d="M31.2001 34.3199H28.0801V37.44H31.2001V34.3199Z" fill="white"/>
<path d="M37.4423 34.3201H34.3223V37.4401H37.4423V34.3201Z" fill="white"/>
<path d="M62.4003 34.3199H59.2803V37.44H62.4003V34.3199Z" fill="white"/>
<path d="M65.5204 34.3199H62.4004V37.44H65.5204V34.3199Z" fill="white"/>
<path d="M78.0018 34.3203H74.8818V37.4403H78.0018V34.3203Z" fill="white"/>
<path d="M6.24208 37.4401H3.12207V40.5601H6.24208V37.4401Z" fill="white"/>
<path d="M12.4823 37.4401H9.3623V40.5601H12.4823V37.4401Z" fill="white"/>
<path d="M18.7216 37.4401H15.6016V40.5601H18.7216V37.4401Z" fill="white"/>
<path d="M21.8417 37.4401H18.7217V40.5601H21.8417V37.4401Z" fill="white"/>
<path d="M37.4423 37.4401H34.3223V40.5601H37.4423V37.4401Z" fill="white"/>
<path d="M40.5624 37.4401H37.4424V40.5601H40.5624V37.4401Z" fill="white"/>
<path d="M43.6825 37.4401H40.5625V40.5601H43.6825V37.4401Z" fill="white"/>
<path d="M46.8017 37.4401H43.6816V40.5601H46.8017V37.4401Z" fill="white"/>
<path d="M56.162 37.4401H53.042V40.5601H56.162V37.4401Z" fill="white"/>
<path d="M59.2821 37.4401H56.1621V40.5601H59.2821V37.4401Z" fill="white"/>
<path d="M65.5204 37.4404H62.4004V40.5604H65.5204V37.4404Z" fill="white"/>
<path d="M71.7606 37.4401H68.6406V40.5601H71.7606V37.4401Z" fill="white"/>
<path d="M74.8827 37.4404H71.7627V40.5604H74.8827V37.4404Z" fill="white"/>
<path d="M78.0018 37.4401H74.8818V40.5601H78.0018V37.4401Z" fill="white"/>
<path d="M3.12196 40.5601H0.00195312V43.6801H3.12196V40.5601Z" fill="white"/>
<path d="M6.24208 40.5602H3.12207V43.6802H6.24208V40.5602Z" fill="white"/>
<path d="M18.7216 40.5602H15.6016V43.6802H18.7216V40.5602Z" fill="white"/>
<path d="M24.9608 40.5603H21.8408V43.6803H24.9608V40.5603Z" fill="white"/>
<path d="M34.3222 40.5601H31.2021V43.6801H34.3222V40.5601Z" fill="white"/>
<path d="M46.8017 40.5601H43.6816V43.6801H46.8017V40.5601Z" fill="white"/>
<path d="M53.0419 40.5602H49.9219V43.6802H53.0419V40.5602Z" fill="white"/>
<path d="M62.4003 40.5601H59.2803V43.6801H62.4003V40.5601Z" fill="white"/>
<path d="M68.6405 40.5602H65.5205V43.6802H68.6405V40.5602Z" fill="white"/>
<path d="M74.8827 40.5598H71.7627V43.6798H74.8827V40.5598Z" fill="white"/>
<path d="M3.12196 43.6799H0.00195312V46.7999H3.12196V43.6799Z" fill="white"/>
<path d="M9.3622 43.6799H6.24219V46.7999H9.3622V43.6799Z" fill="white"/>
<path d="M15.6015 43.6799H12.4814V46.7999H15.6015V43.6799Z" fill="white"/>
<path d="M21.8417 43.6803H18.7217V46.8003H21.8417V43.6803Z" fill="white"/>
<path d="M24.9608 43.6803H21.8408V46.8003H24.9608V43.6803Z" fill="white"/>
<path d="M31.2001 43.6802H28.0801V46.8002H31.2001V43.6802Z" fill="white"/>
<path d="M37.4423 43.6803H34.3223V46.8003H37.4423V43.6803Z" fill="white"/>
<path d="M40.5624 43.6799H37.4424V46.7999H40.5624V43.6799Z" fill="white"/>
<path d="M49.9218 43.6799H46.8018V46.7999H49.9218V43.6799Z" fill="white"/>
<path d="M56.162 43.6802H53.042V46.8002H56.162V43.6802Z" fill="white"/>
<path d="M59.2821 43.6799H56.1621V46.7999H59.2821V43.6799Z" fill="white"/>
<path d="M62.4003 43.6802H59.2803V46.8002H62.4003V43.6802Z" fill="white"/>
<path d="M65.5204 43.6802H62.4004V46.8002H65.5204V43.6802Z" fill="white"/>
<path d="M68.6405 43.6802H65.5205V46.8002H68.6405V43.6802Z" fill="white"/>
<path d="M74.8827 43.6799H71.7627V46.7999H74.8827V43.6799Z" fill="white"/>
<path d="M78.0018 43.6799H74.8818V46.7999H78.0018V43.6799Z" fill="white"/>
<path d="M3.12196 46.8003H0.00195312V49.9203H3.12196V46.8003Z" fill="white"/>
<path d="M12.4823 46.8H9.3623V49.9201H12.4823V46.8Z" fill="white"/>
<path d="M15.6015 46.8H12.4814V49.9201H15.6015V46.8Z" fill="white"/>
<path d="M28.0819 46.7999H24.9619V49.9199H28.0819V46.7999Z" fill="white"/>
<path d="M31.2001 46.8H28.0801V49.9201H31.2001V46.8Z" fill="white"/>
<path d="M37.4423 46.7998H34.3223V49.9198H37.4423V46.7998Z" fill="white"/>
<path d="M46.8017 46.8003H43.6816V49.9203H46.8017V46.8003Z" fill="white"/>
<path d="M53.0419 46.8H49.9219V49.9201H53.0419V46.8Z" fill="white"/>
<path d="M56.162 46.8H53.042V49.9201H56.162V46.8Z" fill="white"/>
<path d="M59.2821 46.8H56.1621V49.9201H59.2821V46.8Z" fill="white"/>
<path d="M62.4003 46.8H59.2803V49.9201H62.4003V46.8Z" fill="white"/>
<path d="M65.5204 46.8H62.4004V49.9201H65.5204V46.8Z" fill="white"/>
<path d="M78.0018 46.8003H74.8818V49.9203H78.0018V46.8003Z" fill="white"/>
<path d="M3.12196 49.9204H0.00195312V53.0404H3.12196V49.9204Z" fill="white"/>
<path d="M12.4823 49.9202H9.3623V53.0402H12.4823V49.9202Z" fill="white"/>
<path d="M18.7216 49.9202H15.6016V53.0402H18.7216V49.9202Z" fill="white"/>
<path d="M21.8417 49.92H18.7217V53.0401H21.8417V49.92Z" fill="white"/>
<path d="M24.9608 49.9199H21.8408V53.0399H24.9608V49.9199Z" fill="white"/>
<path d="M37.4423 49.92H34.3223V53.0401H37.4423V49.92Z" fill="white"/>
<path d="M40.5624 49.9204H37.4424V53.0404H40.5624V49.9204Z" fill="white"/>
<path d="M43.6825 49.9204H40.5625V53.0404H43.6825V49.9204Z" fill="white"/>
<path d="M46.8017 49.9204H43.6816V53.0404H46.8017V49.9204Z" fill="white"/>
<path d="M53.0419 49.9202H49.9219V53.0402H53.0419V49.9202Z" fill="white"/>
<path d="M56.162 49.92H53.042V53.0401H56.162V49.92Z" fill="white"/>
<path d="M59.2821 49.9202H56.1621V53.0402H59.2821V49.9202Z" fill="white"/>
<path d="M62.4003 49.92H59.2803V53.0401H62.4003V49.92Z" fill="white"/>
<path d="M65.5204 49.92H62.4004V53.0401H65.5204V49.92Z" fill="white"/>
<path d="M71.7606 49.9204H68.6406V53.0404H71.7606V49.9204Z" fill="white"/>
<path d="M28.0819 53.04H24.9619V56.16H28.0819V53.04Z" fill="white"/>
<path d="M31.2001 53.0402H28.0801V56.1602H31.2001V53.0402Z" fill="white"/>
<path d="M34.3222 53.0398H31.2021V56.1598H34.3222V53.0398Z" fill="white"/>
<path d="M40.5624 53.0402H37.4424V56.1602H40.5624V53.0402Z" fill="white"/>
<path d="M43.6825 53.0402H40.5625V56.1602H43.6825V53.0402Z" fill="white"/>
<path d="M46.8017 53.0402H43.6816V56.1602H46.8017V53.0402Z" fill="white"/>
<path d="M49.9218 53.0402H46.8018V56.1602H49.9218V53.0402Z" fill="white"/>
<path d="M53.0419 53.04H49.9219V56.16H53.0419V53.04Z" fill="white"/>
<path d="M65.5204 53.0402H62.4004V56.1602H65.5204V53.0402Z" fill="white"/>
<path d="M68.6405 53.0402H65.5205V56.1602H68.6405V53.0402Z" fill="white"/>
<path d="M34.3222 56.1602H31.2021V59.2802H34.3222V56.1602Z" fill="white"/>
<path d="M53.0419 56.1602H49.9219V59.2802H53.0419V56.1602Z" fill="white"/>
<path d="M59.2821 56.1602H56.1621V59.2802H59.2821V56.1602Z" fill="white"/>
<path d="M65.5204 56.1603H62.4004V59.2803H65.5204V56.1603Z" fill="white"/>
<path d="M71.7606 56.1603H68.6406V59.2803H71.7606V56.1603Z" fill="white"/>
<path d="M74.8827 56.1603H71.7627V59.2803H74.8827V56.1603Z" fill="white"/>
<path d="M78.0018 56.1602H74.8818V59.2802H78.0018V56.1602Z" fill="white"/>
<path d="M28.0819 59.2804H24.9619V62.4004H28.0819V59.2804Z" fill="white"/>
<path d="M31.2001 59.2803H28.0801V62.4003H31.2001V59.2803Z" fill="white"/>
<path d="M40.5624 59.28H37.4424V62.4H40.5624V59.28Z" fill="white"/>
<path d="M46.8017 59.2803H43.6816V62.4003H46.8017V59.2803Z" fill="white"/>
<path d="M53.0419 59.28H49.9219V62.4H53.0419V59.28Z" fill="white"/>
<path d="M65.5204 59.28H62.4004V62.4H65.5204V59.28Z" fill="white"/>
<path d="M68.6405 59.2803H65.5205V62.4003H68.6405V59.2803Z" fill="white"/>
<path d="M74.8827 59.2797H71.7627V62.3997H74.8827V59.2797Z" fill="white"/>
<path d="M78.0018 59.28H74.8818V62.4H78.0018V59.28Z" fill="white"/>
<path d="M28.0819 62.4005H24.9619V65.5205H28.0819V62.4005Z" fill="white"/>
<path d="M31.2001 62.4004H28.0801V65.5204H31.2001V62.4004Z" fill="white"/>
<path d="M34.3222 62.4004H31.2021V65.5204H34.3222V62.4004Z" fill="white"/>
<path d="M37.4423 62.4004H34.3223V65.5204H37.4423V62.4004Z" fill="white"/>
<path d="M43.6825 62.4001H40.5625V65.5202H43.6825V62.4001Z" fill="white"/>
<path d="M46.8017 62.4001H43.6816V65.5202H46.8017V62.4001Z" fill="white"/>
<path d="M49.9218 62.4001H46.8018V65.5202H49.9218V62.4001Z" fill="white"/>
<path d="M53.0419 62.4001H49.9219V65.5202H53.0419V62.4001Z" fill="white"/>
<path d="M56.162 62.4006H53.042V65.5206H56.162V62.4006Z" fill="white"/>
<path d="M59.2821 62.4004H56.1621V65.5204H59.2821V62.4004Z" fill="white"/>
<path d="M62.4003 62.4004H59.2803V65.5204H62.4003V62.4004Z" fill="white"/>
<path d="M65.5204 62.4004H62.4004V65.5204H65.5204V62.4004Z" fill="white"/>
<path d="M71.7606 62.4004H68.6406V65.5204H71.7606V62.4004Z" fill="white"/>
<path d="M28.0819 65.5206H24.9619V68.6406H28.0819V65.5206Z" fill="white"/>
<path d="M31.2001 65.5199H28.0801V68.6399H31.2001V65.5199Z" fill="white"/>
<path d="M37.4423 65.5205H34.3223V68.6405H37.4423V65.5205Z" fill="white"/>
<path d="M40.5624 65.5201H37.4424V68.6402H40.5624V65.5201Z" fill="white"/>
<path d="M46.8017 65.5201H43.6816V68.6402H46.8017V65.5201Z" fill="white"/>
<path d="M56.162 65.5205H53.042V68.6405H56.162V65.5205Z" fill="white"/>
<path d="M59.2821 65.5203H56.1621V68.6403H59.2821V65.5203Z" fill="white"/>
<path d="M65.5204 65.5199H62.4004V68.6399H65.5204V65.5199Z" fill="white"/>
<path d="M68.6405 65.5205H65.5205V68.6405H68.6405V65.5205Z" fill="white"/>
<path d="M71.7606 65.5201H68.6406V68.6402H71.7606V65.5201Z" fill="white"/>
<path d="M74.8827 65.5201H71.7627V68.6402H74.8827V65.5201Z" fill="white"/>
<path d="M78.0018 65.5201H74.8818V68.6402H78.0018V65.5201Z" fill="white"/>
<path d="M28.0819 68.6399H24.9619V71.7599H28.0819V68.6399Z" fill="white"/>
<path d="M31.2001 68.6403H28.0801V71.7603H31.2001V68.6403Z" fill="white"/>
<path d="M34.3222 68.6399H31.2021V71.7599H34.3222V68.6399Z" fill="white"/>
<path d="M40.5624 68.6405H37.4424V71.7605H40.5624V68.6405Z" fill="white"/>
<path d="M43.6825 68.6405H40.5625V71.7605H43.6825V68.6405Z" fill="white"/>
<path d="M49.9218 68.6403H46.8018V71.7603H49.9218V68.6403Z" fill="white"/>
<path d="M53.0419 68.6404H49.9219V71.7604H53.0419V68.6404Z" fill="white"/>
<path d="M68.6405 68.6399H65.5205V71.7599H68.6405V68.6399Z" fill="white"/>
<path d="M71.7606 68.6399H68.6406V71.7599H71.7606V68.6399Z" fill="white"/>
<path d="M78.0018 68.6405H74.8818V71.7605H78.0018V68.6405Z" fill="white"/>
<path d="M31.2001 71.7603H28.0801V74.8803H31.2001V71.7603Z" fill="white"/>
<path d="M37.4423 71.7601H34.3223V74.8801H37.4423V71.7601Z" fill="white"/>
<path d="M40.5624 71.7603H37.4424V74.8803H40.5624V71.7603Z" fill="white"/>
<path d="M49.9218 71.7603H46.8018V74.8803H49.9218V71.7603Z" fill="white"/>
<path d="M53.0419 71.7603H49.9219V74.8803H53.0419V71.7603Z" fill="white"/>
<path d="M56.162 71.7603H53.042V74.8803H56.162V71.7603Z" fill="white"/>
<path d="M62.4003 71.7603H59.2803V74.8803H62.4003V71.7603Z" fill="white"/>
<path d="M65.5204 71.7604H62.4004V74.8804H65.5204V71.7604Z" fill="white"/>
<path d="M68.6405 71.7604H65.5205V74.8804H68.6405V71.7604Z" fill="white"/>
<path d="M78.0018 71.7603H74.8818V74.8803H78.0018V71.7603Z" fill="white"/>
<path d="M28.0819 74.8802H24.9619V78.0003H28.0819V74.8802Z" fill="white"/>
<path d="M31.2001 74.8804H28.0801V78.0004H31.2001V74.8804Z" fill="white"/>
<path d="M43.6825 74.8804H40.5625V78.0004H43.6825V74.8804Z" fill="white"/>
<path d="M46.8017 74.8801H43.6816V78.0001H46.8017V74.8801Z" fill="white"/>
<path d="M59.2821 74.8801H56.1621V78.0001H59.2821V74.8801Z" fill="white"/>
<path d="M62.4003 74.8804H59.2803V78.0004H62.4003V74.8804Z" fill="white"/>
<path d="M65.5204 74.8804H62.4004V78.0004H65.5204V74.8804Z" fill="white"/>
<path d="M68.6405 74.8801H65.5205V78.0001H68.6405V74.8801Z" fill="white"/>
<path d="M71.7606 74.8801H68.6406V78.0001H71.7606V74.8801Z" fill="white"/>
<path d="M74.8827 74.8804H71.7627V78.0004H74.8827V74.8804Z" fill="white"/>
<path d="M78.0018 74.8804H74.8818V78.0004H78.0018V74.8804Z" fill="white"/>
<path d="M-0.000225067 14.4628V7.37115C-0.000225067 3.30693 3.34567 0.00012207 7.45619 0.00012207H14.3836C18.4939 0.00012207 21.8398 3.30693 21.8398 7.37115V21.8402L7.45619 21.8358C3.34567 21.8358 -0.000225067 18.5292 -0.000225067 14.4628ZM3.27579 14.4628C3.27579 16.722 5.15097 18.56 7.45707 18.56L18.5638 18.5633V7.37115C18.5638 5.1131 16.6886 3.27613 14.3836 3.27613H7.45619C5.15097 3.27613 3.27579 5.1131 3.27579 7.37115V14.4628Z" fill="white"/>
<path d="M78.0022 14.463V7.37127C78.0022 3.30705 74.6563 0.000244141 70.5458 0.000244141H63.6183C59.508 0.000244141 56.1621 3.30705 56.1621 7.37127V21.8403L70.5458 21.8359C74.6563 21.8359 78.0022 18.5294 78.0022 14.463ZM74.7262 14.463C74.7262 16.7221 72.851 18.5602 70.5449 18.5602L59.4381 18.5634V7.37127C59.4381 5.11322 61.3133 3.27625 63.6183 3.27625H70.5458C72.851 3.27625 74.7262 5.11322 74.7262 7.37127V14.463Z" fill="white"/>
<path d="M-0.000225067 63.5378V70.6295C-0.000225067 74.6937 3.34567 78.0005 7.45619 78.0005H14.3836C18.4939 78.0005 21.8398 74.6937 21.8398 70.6295V56.1604L7.45619 56.1648C3.34567 56.1648 -0.000225067 59.4714 -0.000225067 63.5378ZM3.27579 63.5378C3.27579 61.2786 5.15097 59.4406 7.45707 59.4406L18.5638 59.4373V70.6295C18.5638 72.8875 16.6886 74.7245 14.3836 74.7245H7.45619C5.15097 74.7245 3.27579 72.8875 3.27579 70.6295V63.5378Z" fill="white"/>
<path d="M15.5078 7.80127C15.5078 8.61176 14.8882 9.26892 14.1242 9.26892H7.71847C6.95441 9.26892 6.33496 8.61176 6.33496 7.80127C6.33496 6.99079 6.95441 6.33362 7.71847 6.33362H14.1242C14.8882 6.33362 15.5078 6.99079 15.5078 7.80127Z" fill="white"/>
<path d="M15.5078 14.0388C15.5078 14.8494 14.8882 15.5065 14.1242 15.5065H7.71847C6.95441 15.5065 6.33496 14.8494 6.33496 14.0388C6.33496 13.2282 6.95441 12.5712 7.71847 12.5712H14.1242C14.8882 12.5712 15.5078 13.2282 15.5078 14.0388Z" fill="white"/>
<path d="M15.5078 10.9199C15.5078 11.7305 14.8882 12.3876 14.1242 12.3876H7.71847C6.95441 12.3876 6.33496 11.7305 6.33496 10.9199C6.33496 10.1093 6.95441 9.45227 7.71847 9.45227H14.1242C14.8882 9.45227 15.5078 10.1093 15.5078 10.9199Z" fill="white"/>
<path d="M71.667 7.80103C71.667 8.61151 71.0474 9.26868 70.2834 9.26868H63.8776C63.1136 9.26868 62.4941 8.61151 62.4941 7.80103C62.4941 6.99054 63.1136 6.33337 63.8776 6.33337H70.2834C71.0474 6.33337 71.667 6.99054 71.667 7.80103Z" fill="white"/>
<path d="M71.667 14.0386C71.667 14.8492 71.0474 15.5062 70.2834 15.5062H63.8776C63.1136 15.5062 62.4941 14.8492 62.4941 14.0386C62.4941 13.228 63.1136 12.5709 63.8776 12.5709H70.2834C71.0474 12.5709 71.667 13.228 71.667 14.0386Z" fill="white"/>
<path d="M71.667 10.9199C71.667 11.7305 71.0474 12.3876 70.2834 12.3876H63.8776C63.1136 12.3876 62.4941 11.7305 62.4941 10.9199C62.4941 10.1093 63.1136 9.45227 63.8776 9.45227H70.2834C71.0474 9.45227 71.667 10.1093 71.667 10.9199Z" fill="white"/>
<path d="M15.5078 63.9614C15.5078 64.7719 14.8882 65.4291 14.1242 65.4291H7.71847C6.95441 65.4291 6.33496 64.7719 6.33496 63.9614C6.33496 63.1509 6.95441 62.4938 7.71847 62.4938H14.1242C14.8882 62.4938 15.5078 63.1509 15.5078 63.9614Z" fill="white"/>
<path d="M15.5078 70.1992C15.5078 71.0098 14.8882 71.6669 14.1242 71.6669H7.71847C6.95441 71.6669 6.33496 71.0098 6.33496 70.1992C6.33496 69.3886 6.95441 68.7316 7.71847 68.7316H14.1242C14.8882 68.7316 15.5078 69.3886 15.5078 70.1992Z" fill="white"/>
<path d="M15.5078 67.0803C15.5078 67.8909 14.8882 68.548 14.1242 68.548H7.71847C6.95441 68.548 6.33496 67.8909 6.33496 67.0803C6.33496 66.2697 6.95441 65.6127 7.71847 65.6127H14.1242C14.8882 65.6127 15.5078 66.2697 15.5078 67.0803Z" fill="white"/>
</svg>
