<svg width="556" height="554" viewBox="0 0 556 554" fill="none" xmlns="http://www.w3.org/2000/svg">
<path d="M212.162 158.357L-6.23374 489.63L224.217 641.557L388.805 391.902M212.162 158.357C225.419 110.387 255.824 20.4578 271.386 44.493C290.839 74.5371 331.997 107.181 362.357 87.2476C392.718 67.3143 420.706 82.3222 450.701 115.183C480.695 148.044 451.6 166.056 436.18 175.865C423.844 183.712 429.873 200.406 434.43 207.772C445.87 209.574 474.613 218.284 498.067 238.706C521.522 259.128 470.871 294.934 442.613 310.284M212.162 158.357C241.009 143.854 302.797 129.533 319.176 188.269M212.162 158.357L269.571 234.259M442.613 310.284L388.805 391.902M442.613 310.284L430.177 307.208M388.805 391.902L300.484 275.129M300.484 275.129L360.889 290.07M300.484 275.129L269.571 234.259M319.176 188.269C349.188 162.596 361.97 135.895 386.018 160.014C410.066 184.133 449.314 217.584 414.216 246.793M319.176 188.269L269.571 234.259M414.216 246.793C433.42 259.453 453.287 269.02 430.177 307.208M414.216 246.793C402.889 251.436 376.366 266.593 360.889 290.07M430.177 307.208L360.889 290.07" stroke="#898989" stroke-width="14" stroke-linejoin="round"/>
<path d="M224.135 308.137L112.405 477.614M297.111 356.247L185.381 525.725" stroke="#898989" stroke-width="14" stroke-linecap="round" stroke-linejoin="round"/>
</svg>
